<?xml version="1.0" encoding="utf-8"?>
<!-- Generator: Adobe Illustrator 19.0.0, SVG Export Plug-In . SVG Version: 6.00 Build 0)  -->
<svg version="1.1" id="Layer_1" xmlns="http://www.w3.org/2000/svg" xmlns:xlink="http://www.w3.org/1999/xlink" x="0px" y="0px"
	 viewBox="-344 475 290.5 51" style="enable-background:new -344 475 290.5 51;" xml:space="preserve">
<style type="text/css">
	.st0{fill:#FFE000;}
</style>
<g id="Layer_2">
</g>
<g id="Layer_2_1_">
</g>
<g>
	<g id="XMLID_2_">
		<polygon class="st0" points="-317.2,475 -310.5,494.1 -290.4,494.5 -306.5,506.7 -300.6,526 -317.2,514.4 -333.7,526 
			-327.9,506.7 -344,494.5 -323.8,494.1 		"/>
	</g>
	<g id="XMLID_3_">
		<polygon class="st0" points="-257.9,475 -251.3,494.1 -231.1,494.5 -247.2,506.7 -241.4,526 -257.9,514.4 -274.5,526 
			-268.7,506.7 -284.7,494.5 -264.5,494.1 		"/>
	</g>
	<g id="XMLID_4_">
		<polygon class="st0" points="-198.7,475 -192.1,494.1 -171.9,494.5 -188,506.7 -182.2,526 -198.7,514.4 -215.3,526 -209.4,506.7 
			-225.5,494.5 -205.3,494.1 		"/>
	</g>
	<g id="XMLID_6_">
		<polygon class="st0" points="-139.5,475 -132.8,494.1 -112.7,494.5 -128.7,506.7 -122.9,526 -139.5,514.4 -156,526 -150.2,506.7 
			-166.3,494.5 -146.1,494.1 		"/>
	</g>
	<g id="XMLID_5_">
		<polygon class="st0" points="-80.3,475 -73.6,494.1 -53.5,494.5 -69.5,506.7 -63.7,526 -80.3,514.4 -96.8,526 -91,506.7 
			-107.1,494.5 -86.9,494.1 		"/>
	</g>
	<g id="XMLID_9_">
		<polygon class="st0" points="-80.2,514.4 -74.3,518.6 -69.3,507.2 -69.5,506.7 -68.9,506.3 -63.8,494.3 -73.6,494.1 -80.2,475 
			-86.9,494.1 -107,494.5 -91,506.7 -96.8,526 		"/>
	</g>
	<g id="XMLID_1_">
		<path class="st0" d="M-80.2,478.4l5.6,16l0.3,0.7h0.8l16.9,0.3l-13.5,10.3l-0.6,0.5l0.2,0.7l4.9,16.2l-13.9-9.7l-0.6-0.5l-0.6,0.5
			l-13.9,9.7l4.9-16.2l0.2-0.7l-0.6-0.5l-13.6-10.2l16.9-0.3h0.8l0.3-0.7L-80.2,478.4 M-80.2,475l-6.6,19l-20.2,0.4l16.1,12.2
			l-5.8,19.4l16.6-11.6l16.5,11.6l-5.9-19.3l16.1-12.2l-20.2-0.4L-80.2,475L-80.2,475z"/>
	</g>
</g>
</svg>
