<?xml version="1.0" encoding="utf-8"?>
<!-- Generator: Adobe Illustrator 19.0.0, SVG Export Plug-In . SVG Version: 6.00 Build 0)  -->
<svg version="1.1" id="Layer_1" xmlns="http://www.w3.org/2000/svg" xmlns:xlink="http://www.w3.org/1999/xlink" x="0px" y="0px"
	 viewBox="-501 521.1 76.6 38.9" style="enable-background:new -501 521.1 76.6 38.9;" xml:space="preserve">
<style type="text/css">
	.st0{clip-path:url(#SVGID_2_);}
	.st1{fill:#158DC9;}
</style>
<g>
	<defs>
		<rect id="SVGID_1_" x="-501" y="521.1" width="76.6" height="38.9"/>
	</defs>
	<clipPath id="SVGID_2_">
		<use xlink:href="#SVGID_1_"  style="overflow:visible;"/>
	</clipPath>
	<g id="Group_2554" transform="translate(0)" class="st0">
		<path id="Path_16186" class="st1" d="M-459.4,540.5c0,1.5,0,3,0,4.4c0,0.3-0.1,0.4-0.4,0.4c-0.6,0-1.3,0-1.9,0
			c-0.3,0-0.4-0.1-0.4-0.4c0-1,0-2.1,0-3.1c0-0.3-0.1-0.4-0.4-0.4c-0.7,0-1.3,0-2,0c-0.3,0-0.4,0.1-0.4,0.4c0,1,0,2.1,0,3.1
			c0,0.3-0.1,0.4-0.4,0.4c-0.6,0-1.3,0-1.9,0c-0.2,0-0.3-0.1-0.3-0.3c0-3,0-6,0-9c0-0.2,0-0.3,0.3-0.3c0.7,0,1.3,0,2,0
			c0.3,0,0.3,0.1,0.3,0.3c0,1,0,2,0,3c0,0.3,0.1,0.4,0.4,0.4c0.7,0,1.4,0,2.1,0c0.3,0,0.3-0.1,0.3-0.3c0-1,0-1.9,0-2.9
			c0-0.3,0.1-0.4,0.4-0.4c0.6,0,1.2,0,1.7,0c0.4,0,0.5,0.1,0.5,0.4C-459.4,537.6-459.4,539.1-459.4,540.5L-459.4,540.5z"/>
		<path id="Path_16187" class="st1" d="M-485.3,526.8c-0.6,0.1-1.2,0.1-1.7,0c-0.4,0-0.8-0.2-1.1-0.4c-0.3-0.2-0.3-0.5,0-0.7
			c0.3-0.2,0.6-0.3,0.9-0.5c1.1-0.5,2.2-1,3.4-1.4c0.8-0.3,1.6-0.3,2.4-0.2c1,0.2,1.4,0.7,1.4,1.6c-0.1,1.3,0.7,2.5,1.8,3
			c0.4,0.2,0.8,0.5,1.2,0.7c0.3,0.2,0.3,0.4,0.1,0.6c-0.1,0.1-0.2,0.2-0.3,0.3c-0.2,0.2-0.4,0.3-0.7,0.1c-0.1-0.1-0.2-0.1-0.3-0.1
			c-1.8-0.7-3.5-1.5-5.1-2.4C-483.9,527-484.6,526.8-485.3,526.8L-485.3,526.8z"/>
		<path id="Path_16188" class="st1" d="M-470.9,523.6c0.6,0,1.1,0.1,1.7,0.3c1.2,0.4,2.5,1,3.7,1.6c0.2,0.1,0.3,0.2,0.4,0.3
			c0.3,0.2,0.3,0.4,0,0.6c-0.3,0.2-0.7,0.4-1,0.4c-0.6,0.1-1.1,0.1-1.7,0c-0.5-0.1-1.1,0-1.6,0.3c-0.8,0.4-1.5,0.7-2.3,1.1
			c-1,0.6-2.1,1.1-3.3,1.5c-0.1,0-0.3,0.1-0.4,0.2c-0.2,0.1-0.3,0.3-0.5,0.2c-0.3-0.2-0.5-0.4-0.6-0.7c-0.1-0.2,0.1-0.3,0.3-0.3
			c0.5-0.3,1.1-0.6,1.6-0.9c0.8-0.5,1.4-1.4,1.4-2.4c0-0.1,0-0.1,0-0.2C-473.2,524.2-472.4,523.5-470.9,523.6L-470.9,523.6z"/>
		<path id="Path_16189" class="st1" d="M-457.5,540.5c0-1.5,0-2.9,0-4.4c0-0.3,0.1-0.4,0.4-0.4c0.6,0,1.3,0,1.9,0
			c0.2,0,0.3,0,0.3,0.3c0,3,0,6,0,9c0,0.2-0.1,0.3-0.3,0.3c-0.7,0-1.3,0-2,0c-0.3,0-0.3-0.1-0.3-0.3
			C-457.5,543.5-457.5,542-457.5,540.5L-457.5,540.5z"/>
		<path id="Path_16190" class="st1" d="M-474.8,545.2c0.2-0.1,0.4-0.1,0.6-0.2c0.6-0.2,0.9-0.8,0.7-1.3c-0.1-0.2-0.1-0.3-0.3-0.4
			c-0.5-0.5-1.2-0.8-1.9-0.8c-1,0-1.9,0-2.9-0.2c-1-0.1-1.9-0.4-2.8-0.9c-1.1-0.7-1.5-2.1-0.9-3.2c0.1-0.2,0.2-0.4,0.3-0.6
			c0.4-0.5,0.4-0.5,1-0.3c0.6,0.2,1.2,0.3,1.8,0.4c-0.3,0.1-0.5,0.2-0.8,0.4c-0.5,0.2-0.8,0.7-0.8,1.2c0,0.6,0.4,0.9,0.9,1.1
			c0.8,0.3,1.6,0.5,2.5,0.6c1.1,0,2.2,0.1,3.3,0.4c1.5,0.5,2.3,2.2,1.8,3.7c-0.2,0.5-0.7,0.7-1.1,1c-0.1,0.1-0.2,0-0.3-0.1
			C-474,545.6-474.4,545.4-474.8,545.2L-474.8,545.2z"/>
		<path id="Path_16191" class="st1" d="M-467.1,527.2c0.5,0,0.9-0.1,1.4-0.1c0.5,0,1-0.3,1.2-0.8c0.1-0.2,0.3-0.2,0.4-0.1
			c0.9,0.2,1.7,0.5,2.5,0.7c2.4,0.5,4.7,0.9,7.1,1.1c0.1,0,0.3,0,0.3,0.1s-0.1,0.2-0.2,0.3c-0.4,0.4-0.9,0.7-1.4,0.8
			c-1.4,0.3-2.8,0.3-4.2,0.1c-2.4-0.4-4.8-1-7.1-1.9C-467,527.2-467.1,527.2-467.1,527.2L-467.1,527.2z"/>
		<path id="Path_16192" class="st1" d="M-486.1,527.1c-1,0.4-2.1,0.8-3.1,1.1c-1.9,0.6-3.9,1-5.9,1.1c-0.9,0.1-1.8,0-2.6-0.2
			c-0.5-0.1-1-0.4-1.4-0.8c-0.2-0.2-0.2-0.3,0.1-0.3c2-0.2,4-0.5,6-0.9c1.2-0.2,2.4-0.5,3.5-0.9c0.3-0.1,0.6-0.1,0.8,0.2
			c0.3,0.4,0.8,0.7,1.3,0.7C-486.9,527.1-486.5,527.2-486.1,527.1L-486.1,527.1z"/>
		<path id="Path_16193" class="st1" d="M-478.7,542.6c-0.5,0.2-0.9,0.7-1,1.2c-0.1,0.5,0.1,1,0.6,1.1c0,0,0,0,0,0
			c0.7,0.3,1.5,0.4,2.2,0.4c0.9,0,1.7,0.2,2.5,0.6c1.1,0.6,1.6,1.9,1,3c-0.2,0.4-0.6,0.8-1,1c-0.1,0.1-0.2,0.1-0.3,0
			c-0.2-0.1-0.3-0.2-0.5-0.3l-0.6-0.2c0.3-0.1,0.6-0.3,0.8-0.4c0.6-0.3,0.9-1,0.6-1.6c-0.1-0.3-0.4-0.5-0.6-0.6
			c-0.5-0.2-1-0.4-1.6-0.3c-0.9,0.1-1.8,0-2.7-0.3c-2.2-0.7-2.3-2.4-1.3-4c0.1-0.2,0.4-0.3,0.5-0.2c0,0,0,0,0,0
			C-479.7,542.3-479.2,542.5-478.7,542.6L-478.7,542.6z"/>
		<path id="Path_16194" class="st1" d="M-495.5,529.7c0.9,0,1.9,0,2.8-0.2c2.4-0.5,4.8-1.2,7.1-2.2c0.8-0.2,1.6-0.1,2.2,0.4
			c0.2,0.2,0,0.2-0.1,0.3c-0.6,0.4-1.3,0.7-1.9,1c-2.2,1-4.5,1.5-6.9,1.5c-0.9,0-1.8-0.2-2.7-0.5
			C-495.2,529.9-495.4,529.9-495.5,529.7L-495.5,529.7z"/>
		<path id="Path_16195" class="st1" d="M-457.8,529.8c-0.4,0.2-0.8,0.4-1.3,0.5c-2.4,0.4-5,0.2-7.3-0.7c-1.1-0.4-2.1-0.8-3.1-1.4
			c-0.7-0.4-0.6-0.4,0-0.8c0.6-0.4,1.3-0.4,1.9-0.1c2.6,1.2,5.3,2,8,2.3c0.4,0,0.8,0,1.2,0C-458.1,529.6-457.9,529.7-457.8,529.8
			L-457.8,529.8z"/>
		<path id="Path_16196" class="st1" d="M-462.8,530.7c-0.7,0.4-1.5,0.6-2.3,0.6c-1.1,0-2.1-0.1-3.1-0.5c-1.3-0.5-2.6-1.1-3.9-1.8
			c-0.3-0.1-0.3-0.2,0-0.4c0.2-0.1,0.4-0.3,0.6-0.4c0.5-0.4,1.2-0.3,1.7,0c2,1.2,4.2,2,6.4,2.3C-463.2,530.7-463,530.7-462.8,530.7
			L-462.8,530.7z"/>
		<path id="Path_16197" class="st1" d="M-490.6,530.7c2.3-0.3,4.5-1,6.5-2.1c0.3-0.1,0.5-0.3,0.8-0.4c0.3-0.3,0.7-0.3,1-0.1
			c0.4,0.2,0.8,0.4,1.2,0.6c0.1,0.1,0.2,0.2,0,0.3c-1.7,1-3.6,1.7-5.5,2.2c-1,0.2-2.1,0.2-3.2-0.1
			C-490,531.1-490.3,530.9-490.6,530.7L-490.6,530.7z"/>
		<path id="Path_16198" class="st1" d="M-478.3,546.8c-0.1,0.2-0.3,0.3-0.4,0.5c-0.4,0.5-0.3,1.3,0.2,1.7c0.1,0.1,0.2,0.1,0.3,0.2
			c0.5,0.2,1,0.4,1.6,0.4c0.6,0,1.1,0.2,1.6,0.4c0.6,0.2,0.9,0.8,0.9,1.4c-0.1,1.4-0.4,2.7-0.9,4c-0.2,0.6-0.6,1.1-1.2,0.9
			c1.1-0.7,0.9-1.9,1.1-2.9c0.1-0.6,0.2-1.1,0.1-1.7c0-0.7-0.2-1-1-1.1c-0.4-0.1-0.9-0.1-1.3-0.2c-0.6-0.1-1.2-0.3-1.8-0.6
			c-1-0.6-1.4-2-0.8-3c0-0.1,0.1-0.1,0.1-0.2c0.1-0.1,0.2-0.2,0.4-0.1C-479,546.6-478.7,546.7-478.3,546.8L-478.3,546.8z"/>
		<path id="Path_16199" class="st1" d="M-476.7,526.1c-1,0-1.9-0.8-1.9-1.8c0,0,0,0,0,0c-0.1-1.1,0.8-2,1.8-2.1
			c1.1-0.1,2,0.8,2.1,1.8c0.1,1.1-0.8,2-1.8,2.1C-476.6,526.1-476.7,526.1-476.7,526.1L-476.7,526.1z"/>
		<path id="Path_16200" class="st1" d="M-452.5,548.1c-0.4,1.2-0.9,2.4-1.3,3.6c-0.1,0.2,0,0.6-0.4,0.6c-0.4,0-0.3-0.4-0.4-0.6
			c-0.5-1.2-0.9-2.4-1.4-3.6v0.3c0,1.2,0,2.4,0,3.6c0,0.2,0.1,0.3-0.2,0.3c-0.3,0-0.3-0.2-0.3-0.4c0-1.5,0-2.9,0-4.4
			c0-0.1-0.1-0.4,0.2-0.4c0.3,0,0.5,0,0.6,0.3c0.4,1.2,0.9,2.5,1.4,3.7c0,0.1,0,0.2,0.2,0.3c0.5-1.3,1-2.6,1.4-3.9
			c0.1-0.2,0.1-0.4,0.4-0.4c0.3,0,0.5,0.1,0.5,0.4c0,1.5,0,2.9,0,4.4c0,0.2,0,0.4-0.3,0.4c-0.3,0-0.2-0.2-0.2-0.4
			C-452.4,550.7-452.4,549.4-452.5,548.1L-452.5,548.1L-452.5,548.1z"/>
		<path id="Path_16201" class="st1" d="M-434.4,548c0,1.4,0,2.7,0,3.9c0,0.1,0.1,0.3-0.1,0.3c-0.1,0.1-0.3,0-0.4-0.1
			c0,0,0-0.1,0-0.1c0-1.5,0-3.1,0-4.6c0-0.1,0-0.3,0.2-0.3c0.2,0,0.4,0,0.5,0.2c0.6,1,1.2,1.9,1.8,2.9c0.2,0.3,0.4,0.7,0.7,1.1
			c0.1-0.1,0.1-0.2,0.1-0.3c0-1.2,0-2.4,0-3.5c0-0.2,0-0.3,0.2-0.3s0.2,0.2,0.2,0.3c0,1.5,0,3,0,4.5c0,0.1,0.1,0.3-0.1,0.3
			c-0.2,0-0.4,0.1-0.5-0.2c-0.2-0.4-0.5-0.8-0.7-1.1l-1.7-2.8C-434.3,548.2-434.3,548.1-434.4,548L-434.4,548z"/>
		<path id="Path_16202" class="st1" d="M-467.6,549.7c0-0.4,0.1-0.8,0.2-1.2c0.5-1.2,1.8-1.8,3-1.3c0.1,0,0.1,0.1,0.2,0.1
			c0.5,0.2,0.8,0.6,0.9,1.1c0,0.1,0.2,0.3-0.1,0.3c-0.2,0.1-0.3,0-0.4-0.2c0,0,0,0,0,0c-0.4-0.8-1.3-1.2-2.2-0.9
			c-0.1,0-0.2,0.1-0.3,0.1c-1.2,0.8-1.2,3.4,0.1,4.1c0.8,0.5,1.8,0.3,2.3-0.5c0.1-0.1,0.1-0.3,0.2-0.4c0.1-0.2,0.1-0.3,0.4-0.3
			c0.3,0.1,0.1,0.3,0.1,0.4c-0.1,0.7-0.7,1.3-1.4,1.4c-0.8,0.2-1.7,0-2.3-0.7C-467.4,551.1-467.6,550.4-467.6,549.7L-467.6,549.7z"
			/>
		<path id="Path_16203" class="st1" d="M-476,533.6c0,0.4,0,0.8,0,1.3c0,0.2,0,0.3-0.3,0.3c-1,0-0.9,0-1-0.9c0-0.6,0-1.1,0-1.7
			c0-0.3,0-0.6,0.1-0.9c0.1-0.4,0.3-0.5,0.6-0.5c0.3,0,0.4,0.1,0.5,0.3C-476,532.3-476,533-476,533.6z"/>
		<path id="Path_16204" class="st1" d="M-477.1,556.3c-0.3,0.1-0.7,0-0.9-0.3c-0.3-0.3-0.4-0.7-0.5-1.1c-0.2-0.9-0.4-1.8-0.6-2.7
			c-0.2-0.5-0.1-1.1,0.2-1.6c0.1-0.2,0.3-0.3,0.6-0.1c0.2,0.1,0.4,0.2,0.6,0.3c-0.4,0.3-0.6,0.9-0.5,1.4c0.1,1,0.2,2,0.4,3
			C-477.9,555.6-477.6,556.1-477.1,556.3L-477.1,556.3z"/>
		<path id="Path_16205" class="st1" d="M-428.1,549.9v2.1c0,0.2,0,0.3-0.2,0.3s-0.3-0.1-0.3-0.3c0-1.3,0-2.7,0-4
			c0-0.3-0.1-0.4-0.4-0.4c-0.3,0-0.6,0-1,0c-0.2,0-0.3,0-0.3-0.2s0.1-0.2,0.3-0.2c1.1,0,2.2,0,3.2,0c0.2,0,0.3,0,0.3,0.2
			c0,0.2-0.1,0.2-0.3,0.2c-0.4,0-0.7,0-1,0c-0.3,0-0.3,0.1-0.3,0.3C-428.1,548.5-428.1,549.2-428.1,549.9z"/>
		<path id="Path_16206" class="st1" d="M-445.7,549.7c0-0.7,0-1.5,0-2.2c0-0.2-0.1-0.4,0.2-0.4c0.4,0,0.3,0.2,0.3,0.4
			c0,1.3,0,2.6,0,3.9c0,0.3,0.1,0.4,0.4,0.4c0.7,0,1.3,0,2,0c0.2,0,0.3,0,0.3,0.2s-0.1,0.2-0.3,0.2c-0.9,0-1.7,0-2.6,0
			c-0.3,0-0.3-0.1-0.3-0.3C-445.7,551.2-445.7,550.5-445.7,549.7L-445.7,549.7z"/>
		<path id="Path_16207" class="st1" d="M-476.7,558.8c-0.4-0.5-0.4-1.2-0.2-1.8c0.1-0.3,0.1-0.6,0-0.9c0-1.6-0.1-3.3-0.1-4.9
			c0-0.2-0.1-0.4,0.3-0.4c0.4,0,0.3,0.2,0.3,0.4c0,1.8-0.1,3.6-0.1,5.4c0,0.1,0,0.2,0,0.3C-476.1,557.9-476.4,558-476.7,558.8
			L-476.7,558.8z"/>
		<path id="Path_16208" class="st1" d="M-476.2,539.1c0,0.4,0,0.8,0,1.1c0,0.3-0.1,0.3-0.4,0.3c-0.7,0-0.7,0-0.7-0.7
			c0-0.6,0-1.3,0-1.9c0-0.2,0.1-0.3,0.3-0.3c0.8,0,0.8,0,0.8,0.7C-476.1,538.6-476.1,538.8-476.2,539.1L-476.2,539.1L-476.2,539.1z"
			/>
		<path id="Path_16209" class="st1" d="M-477.1,527.8c0-0.2,0-0.3,0-0.5c0-0.2,0.1-0.5-0.3-0.4c-0.2,0-0.3-0.1-0.2-0.3
			s0.1-0.3,0.2-0.3c0.5,0,1,0,1.4,0c0.1,0,0.2,0.1,0.3,0.2c0,0,0,0,0,0c0,0.2-0.1,0.3-0.3,0.3c-0.4,0-0.3,0.2-0.3,0.4
			c0,0.4,0,0.7,0.1,1.1c0,0.2-0.1,0.3-0.3,0.3c-0.1,0-0.2,0-0.3,0c-0.2,0-0.3,0-0.3-0.3S-477.1,528-477.1,527.8z"/>
		<path id="Path_16210" class="st1" d="M-441.2,549.7v2.3c0,0.1,0,0.3-0.2,0.3c-0.3,0-0.3-0.1-0.3-0.3c0-1.5,0-3,0-4.5
			c0-0.2,0-0.3,0.2-0.3s0.2,0.2,0.2,0.3C-441.2,548.2-441.2,549-441.2,549.7L-441.2,549.7z"/>
		<path id="Path_16211" class="st1" d="M-476.2,543.8c0,0.3,0,0.5,0,0.8c0,0.4-0.1,0.5-0.5,0.5c-0.3,0-0.4,0-0.4-0.3
			c0-0.6,0-1.2,0-1.8c0-0.2,0-0.3,0.3-0.3c0.1,0,0.3,0,0.4,0c0.2,0,0.2,0.1,0.2,0.2C-476.2,543.2-476.2,543.5-476.2,543.8
			L-476.2,543.8L-476.2,543.8z"/>
		<path id="Path_16212" class="st1" d="M-476.3,548c0,0.3,0,0.7,0,1c0,0.3-0.1,0.3-0.4,0.3s-0.4,0-0.4-0.3c0-0.7,0-1.3,0-2
			c0-0.3,0.2-0.2,0.3-0.2c0.2,0,0.4-0.2,0.4,0.2C-476.3,547.3-476.3,547.7-476.3,548L-476.3,548L-476.3,548z"/>
		<path id="Path_16213" class="st1" d="M-426.5,545.1c-1-3-2-6-3-9.1c0-0.2-0.2-0.3-0.4-0.3c0,0,0,0,0,0c-0.4,0-0.8,0-1.2,0
			s-0.8,0-1.2,0c-0.2,0-0.4,0.1-0.4,0.3c0,0,0,0,0,0c-0.3,0.9-0.6,1.8-0.9,2.7c-0.7,2.1-1.4,4.2-2.1,6.2c-0.1,0.3,0,0.4,0.3,0.4
			c0.5,0,1,0,1.5,0c0.2,0.1,0.4-0.1,0.5-0.3c0,0,0,0,0-0.1c0.1-0.4,0.3-0.8,0.4-1.3c0-0.2,0.2-0.3,0.4-0.3c0,0,0,0,0,0
			c0.8,0,1.6,0,2.4,0c0.2,0,0.4,0.1,0.4,0.3c0,0,0,0,0,0c0.1,0.4,0.3,0.9,0.4,1.3c0,0.2,0.2,0.3,0.4,0.3c0,0,0,0,0,0
			c0.7,0,1.5,0,2.2,0C-426.5,545.3-426.5,545.3-426.5,545.1L-426.5,545.1z M-430.7,541.4c-0.4,0-0.9,0-1.3,0c-0.2,0-0.3-0.1-0.2-0.2
			c0.3-0.9,0.5-1.7,0.8-2.6l0.1,0c0.3,0.9,0.5,1.8,0.8,2.6C-430.5,541.4-430.5,541.4-430.7,541.4L-430.7,541.4z"/>
		<path id="Path_16214" class="st1" d="M-436.3,545c-0.9-2.6-1.7-5.3-2.6-7.9c-0.1-0.4-0.2-1-0.5-1.2c-0.3-0.3-0.9,0-1.4-0.1
			c-0.5,0-0.9,0-1.3,0c-0.2,0-0.3,0-0.4,0.2c-1,3-2,6.1-3.1,9.1c-0.1,0.2,0,0.3,0.2,0.3c0.6,0,1.1,0,1.7,0c0.2,0,0.4-0.1,0.4-0.3
			c0,0,0,0,0,0c0.1-0.5,0.3-0.9,0.4-1.3c0-0.2,0.2-0.3,0.4-0.3c0,0,0,0,0,0c0.8,0,1.6,0,2.4,0c0.2,0,0.4,0.1,0.4,0.3c0,0,0,0,0,0
			c0.1,0.5,0.3,0.9,0.4,1.3c0,0.2,0.2,0.3,0.4,0.3c0,0,0,0,0,0c0.7,0,1.4,0,2,0C-436.2,545.4-436.2,545.3-436.3,545L-436.3,545z
			 M-440.4,541.4c-0.4,0-0.8,0-1.3,0c-0.2,0-0.2-0.1-0.2-0.2c0.3-0.9,0.5-1.7,0.8-2.6h0.1c0.3,0.9,0.5,1.7,0.8,2.6
			C-440.2,541.4-440.3,541.4-440.4,541.4L-440.4,541.4z"/>
		<path id="Path_16215" class="st1" d="M-445.4,536.9c-0.7-0.8-1.7-1.2-2.8-1.1c-1.4,0-2.8,0-4.2,0c-0.3,0-0.4,0.1-0.4,0.3
			c0,1.5,0,3,0,4.4l0,0c0,1.5,0,3,0,4.5c0,0.3,0.1,0.4,0.4,0.3c0.7,0,1.3,0,2,0c0.3,0,0.4-0.1,0.4-0.3c0-0.9,0-1.9,0-2.8
			c0-0.3,0.1-0.3,0.4-0.3c0.7,0,1.4,0,2.1,0c1.1,0,2.1-0.7,2.5-1.7C-444.4,539.1-444.6,537.8-445.4,536.9z M-448.3,539.9
			c-0.5,0.1-1.1,0.1-1.6,0.1c-0.2,0-0.2-0.1-0.2-0.2c0-0.3,0-0.6,0-1c0-0.3-0.2-0.7,0.1-0.9c0.2-0.2,0.7-0.1,1.1-0.1
			c0.3,0,0.5,0,0.8,0.1c0.5,0.1,0.9,0.5,0.8,1.1C-447.4,539.4-447.8,539.8-448.3,539.9L-448.3,539.9z"/>
		<path id="Path_16216" class="st1" d="M-471.1,537.9c-0.7-1.2-1.9-1.9-3.2-2c-1.1-0.2-2.3-0.3-3.4-0.3c-1.2,0-2.4-0.3-3.4-0.9
			c-0.5-0.2-0.8-0.7-0.8-1.2c0-0.4,0.1-0.8,0.3-1.2c0.3-0.7,1-1.1,1.8-0.8c0.1,0,0.2,0.1,0.3,0.1c0.7,0.3,1.5,0.2,2.2-0.2
			c0.4-0.2,0.4-0.4,0.1-0.7c-0.5-0.5-1.1-0.8-1.8-0.8c-0.9,0-1.8,0.2-2.7,0.5c-0.8,0.2-1.4,0.8-1.8,1.5c-0.7,1.5-0.2,3.4,1.2,4.3
			c1.1,0.6,2.4,1,3.7,1.1c1.3,0.1,2.6,0.1,3.9,0.3c0.8,0,1.5,0.4,2,1c0.4,0.4,0.4,1,0,1.3c-0.1,0.1-0.2,0.2-0.4,0.2
			c-0.4,0.2-0.9,0.4-1.5,0.7c0.7,0.2,1.4,0.5,2,0.9c0.1,0.1,0.2,0.1,0.3,0C-470.8,540.7-470.3,539.6-471.1,537.9L-471.1,537.9z
			 M-478.6,530.3c0.1,0,0.2,0,0.2,0.1s-0.1,0.1-0.2,0.1c-0.1,0-0.2,0-0.2-0.1C-478.8,530.3-478.7,530.3-478.6,530.3z"/>
		<path id="Path_16217" class="st1" d="M-469.9,531.4c-0.5-0.6-1.3-1.1-2.1-1.2c-0.6-0.1-1.1-0.2-1.7-0.3c-0.8-0.1-1.6,0.2-2.2,0.7
			c-0.3,0.3-0.3,0.5,0,0.7c0.6,0.4,1.5,0.5,2.2,0.3c0.7-0.4,1.5-0.2,2,0.4c0.1,0.1,0.1,0.2,0.2,0.4c0.1,0.3,0.2,0.5,0.2,0.8
			c0.1,0.6-0.2,1.2-0.7,1.4c-0.7,0.4-1.5,0.7-2.3,0.8c0.9,0.3,1.8,0.6,2.6,1.1c0.2,0.1,0.3,0,0.4-0.1c1-0.4,1.7-1.2,2-2.3
			C-469.1,533.2-469.3,532.1-469.9,531.4L-469.9,531.4z M-474.8,530.5c-0.1,0-0.2,0-0.2-0.1s0.1-0.1,0.2-0.1c0.1,0,0.2,0,0.2,0.1
			C-474.6,530.5-474.7,530.5-474.8,530.5L-474.8,530.5z"/>
		<path id="Path_16218" class="st1" d="M-458,548.1c-0.6-1.1-2-1.5-3.1-0.9c-0.4,0.2-0.6,0.5-0.8,0.8c-0.3,0.5-0.4,1-0.3,1.6
			c0,0.4,0,0.8,0.2,1.2c0.4,1.2,1.7,1.8,2.9,1.3c0.6-0.2,1-0.6,1.3-1.2C-457.5,550.2-457.5,549.1-458,548.1L-458,548.1z
			 M-458.6,551.3c-0.5,0.8-1.6,0.9-2.4,0.4c-0.2-0.1-0.4-0.3-0.5-0.5c-0.5-0.9-0.5-2,0-2.9c0.5-0.8,1.5-1.1,2.3-0.6
			c0.2,0.1,0.5,0.3,0.6,0.6c0.3,0.4,0.4,1,0.4,1.5C-458.1,550.3-458.3,550.8-458.6,551.3L-458.6,551.3z"/>
		<path id="Path_16219" class="st1" d="M-435.9,552c-0.6-1.5-1.2-3.1-1.8-4.6c-0.1-0.2-0.2-0.3-0.4-0.2c-0.3-0.1-0.4,0.1-0.4,0.3
			c-0.6,1.5-1.2,3-1.8,4.5c0,0.1-0.2,0.3,0,0.3c0.2,0.1,0.4,0,0.4-0.1c0,0,0,0,0-0.1c0.1-0.4,0.3-0.7,0.4-1.1c0-0.2,0.2-0.3,0.4-0.3
			c0.6,0,1.2,0,1.7,0c0.2,0,0.4,0.1,0.5,0.3c0,0,0,0,0,0c0.1,0.4,0.3,0.7,0.4,1.1c0.1,0.3,0.3,0.2,0.5,0.2
			C-435.7,552.2-435.9,552.1-435.9,552L-435.9,552z M-438.9,550.3c-0.2,0-0.2-0.1-0.2-0.3c0.3-0.8,0.6-1.5,0.9-2.4
			c0.3,0.9,0.7,1.7,1,2.4c0,0.1,0,0.1,0,0.2C-437.7,550.3-438.3,550.3-438.9,550.3L-438.9,550.3z"/>
		<path id="Path_16220" class="st1" d="M-446.9,548.5c0-0.8-0.6-1.3-1.5-1.3c-0.6,0-1.1,0-1.7,0c-0.3,0-0.3,0.1-0.3,0.3
			c0,0.7,0,1.5,0,2.2v1.1c0,0.4,0,0.8,0,1.1c0,0.2,0,0.3,0.3,0.3s0.2-0.2,0.2-0.3c0-0.5,0-1.1,0-1.6c0-0.3,0.1-0.3,0.4-0.3
			c0.4,0,0.9,0,1.3,0c0.8,0,1.4-0.6,1.4-1.3C-446.9,548.6-446.9,548.5-446.9,548.5L-446.9,548.5z M-448.3,549.6c-0.5,0.1-1,0-1.4,0
			c-0.2,0-0.2-0.1-0.2-0.3c0-0.3,0-0.5,0-0.8c0-0.7,0.4-1,1.1-1c0.2,0,0.3,0,0.5,0c0.7,0,1,0.3,1,0.9c0.1,0.5-0.2,1-0.7,1.1
			C-448.2,549.5-448.3,549.6-448.3,549.6L-448.3,549.6z"/>
	</g>
</g>
</svg>
