<?xml version="1.0" encoding="utf-8"?>
<!-- Generator: Adobe Illustrator 19.0.0, SVG Export Plug-In . SVG Version: 6.00 Build 0)  -->
<svg version="1.1" xmlns="http://www.w3.org/2000/svg" xmlns:xlink="http://www.w3.org/1999/xlink" x="0px" y="0px"
	 viewBox="-326 328.9 426.5 424.1" style="enable-background:new -326 328.9 426.5 424.1;" xml:space="preserve">
<g id="Layer_1">
</g>
<g id="Isolation_Mode">
	<g>
		<path d="M-32.1,438.5c12.2,0,23.3,0.8,34.2-0.2c15.4-1.4,25.5,4.5,34.5,17.1c18.5,26,38.3,51,57.9,76.2c4.3,5.5,6.1,11.1,6,18
			c-0.3,23.3-0.1,46.5-0.1,69.8c0,15.6-8.6,24.3-24.2,24.7c-3.9,0.1-7.7,0-12.3,0c-1.1,2.3-2.2,4.6-3.2,7
			c-6.5,14.3-19.3,22.7-34.7,22.1c-15.8-0.7-26.9-8.6-33-23.3c-0.6-1.4-1.1-2.8-1.7-4.1c-0.1-0.3-0.4-0.5-1-1.2
			c-53.7,0-107.9,0-162.4,0c-6.3,17.8-17.9,29.1-37.6,28.5c-18.4-0.5-29.4-11.3-35.2-29c-8,0-16,0-24,0c-11.7,0-13.2-1.5-13.2-13.6
			c0-21.5,0-43,0-64.4c0-3.2,0-6.4,0-10.7c-5.9,0-10.9,0-15.9,0c-7.2,0-14.3,0-21.5-0.2c-3.9-0.1-6-2.4-6.4-6.2
			c-0.4-3.8,2-6.9,5.9-7.7c1.4-0.3,3-0.2,4.5-0.2c17.3,0,34.6,0,51.9,0c1.5,0,3-0.1,4.5,0.2c3.6,0.7,5.8,3.1,6.1,6.8
			c0.3,3.7-2.3,6.5-6.5,7.1c-2.3,0.3-4.7,0.4-6.9,0.5c-1.8,6.5-2.3,59.4-0.7,73.3c7.1,1.3,14.3,0.8,21.8,0.3
			c6.3-18.3,18.1-29.8,38.2-29.1c18.5,0.6,29.2,11.7,34.9,28.9c41.6,0,83.2,0,125.3,0c0-68.7,0-136.9,0-205.6
			c-73.6,0-146.7,0-220.5,0c0,9.9,0,19.2,0,29c3.1,0.2,5.8,0.3,8.3,0.7c3.8,0.6,5.8,3.2,5.9,6.8c0.1,3.6-2,6.2-5.6,7
			c-1.7,0.4-3.6,0.3-5.3,0.3c-17,0-34,0-51,0c-1.5,0-3,0.1-4.5-0.1c-4.3-0.7-6.4-3.3-6.3-7.3c0.1-4.2,2.1-6.5,6.7-6.7
			c8-0.3,16.1-0.1,24.2-0.1c3.8,0,7.6,0,12,0c0.3-3,0.7-5.3,0.7-7.6c0.1-8.1,0-16.1,0-24.2c0-11,1.6-12.6,12.2-12.7
			c0.6,0,1.2,0,1.8,0c74.6,0,149.1,0,223.7,0c0.9,0,1.8-0.1,2.7,0c7.3,0.3,9.5,2.5,9.7,9.7C-32,424.6-32.1,430.9-32.1,438.5z
			 M27.3,467.7c-2.6-3.5-4.3-5.2-5.4-7.2c-3.4-6.4-8.6-8.2-15.6-7.8c-10.4,0.5-20.9,0.1-31.3,0.2c-2.2,0-4.5,0.5-6.6,0.7
			c-1.6,17.7-0.9,168.8,0.8,175.8c7,0,14,0,21.2,0c5.8-17.6,16.8-28.7,35.6-29.1c19.7-0.4,31.2,11,37.3,28.6c1.2,0.3,2,0.7,2.9,0.7
			c2.4,0.1,4.8,0.2,7.1,0.2c10.6-0.1,12.7-2,12.7-12.4c0.1-19.7,0-39.4,0-59c0-2.6-0.3-5.2-0.5-8.8c-3.7,0-6.9,0-10,0
			c-27.1,0-54.3,0.1-81.4,0c-9.1,0-11.2-2.2-11.3-11c-0.1-20-0.1-40,0-59.9c0.1-8.8,2.3-10.8,11.3-10.9
			C4.5,467.6,14.9,467.7,27.3,467.7z M78.4,534.9c-13.7-18-26.3-34.5-39-50.9c-0.9-1.2-3.1-2-4.6-2c-12.1-0.2-24.3-0.1-37.6-0.1
			c-0.1,18.1-0.7,35.4,0.5,53C24.5,534.9,50.3,534.9,78.4,534.9z M-230.8,636.9c-0.3,11.5,9.4,21.6,21.3,22.1
			c11.9,0.5,22.9-9.6,23.2-21.3c0.3-12.2-10.4-23.8-22.3-23.2C-222.5,615.3-230.3,625.1-230.8,636.9z M48.9,637.4
			c0.2-12.2-9.5-22.9-21.5-22.9c-10.6,0-21.9,7.3-22.6,21.8c-0.6,11.9,9.6,22.5,21.6,22.7C38.6,659.3,48.7,649.5,48.9,637.4z"/>
		<path d="M-282.3,511.6c-5.9,0-11.9,0-17.8,0c-2.1,0-4.2-0.1-6.1-0.6c-3.6-1-5.3-3.6-5-7.4c0.3-3.4,2.2-5.6,5.5-5.9
			c3.2-0.4,6.5-0.4,9.7-0.4c10.4,0,20.7-0.1,31.1,0c8.3,0,12,2.4,11.8,7.4c-0.2,4.7-3.9,6.9-11.5,6.9
			C-270.4,511.6-276.3,511.6-282.3,511.6z"/>
		<path d="M-208.6,626.1c6,0,10.6,4.7,10.5,10.8c0,6-4.9,11-10.6,10.9c-5.4-0.1-10.9-5.6-10.9-10.9
			C-219.5,631.2-214.3,626.1-208.6,626.1z"/>
		<path d="M37.7,636.4c0.2,5.7-4.8,11.1-10.4,11.3c-5.7,0.2-10.8-4.8-11-10.6c-0.2-6,4.3-10.9,10.3-11.2
			C32.2,625.7,37.5,630.7,37.7,636.4z"/>
	</g>
</g>
</svg>
