<?xml version="1.0" encoding="utf-8"?>
<!-- Generator: Adobe Illustrator 19.0.0, SVG Export Plug-In . SVG Version: 6.00 Build 0)  -->
<svg version="1.1" xmlns="http://www.w3.org/2000/svg" xmlns:xlink="http://www.w3.org/1999/xlink" x="0px" y="0px"
	 viewBox="-326 328.9 426.5 424.1" style="enable-background:new -326 328.9 426.5 424.1;" xml:space="preserve">
<style type="text/css">
	.st0{fill-rule:evenodd;clip-rule:evenodd;}
</style>
<g id="Layer_1">
	<g id="Layer_2">
	</g>
</g>
<g id="Isolation_Mode">
	<path class="st0" d="M-111.9,560.7c1.4,17.3,1.9,51.9,5.7,68.4c2,8.6,4.2,16.5,2.6,26.5c-2.2,14.8-1.3,18.1,0.4,35.9
		c1.7,17.7-4.5,41.3-9.7,56.3c-5.9-14.5-11.9-40.7-10-56.3c2-16.5,1.3-20.6,0.3-36.7c-0.6-9.4,1.5-18.5,3.1-25.9
		c3.4-15.6,3.8-51.5,5.2-68.3C-113.5,551.4-112.5,553.8-111.9,560.7L-111.9,560.7z M-53.3,547.1c0.1,4.8-0.9,9.2-1,13.2
		c-0.1,6.2,3.3,6.2,4,0.7c0.3-2.3,0.8-7.1,1.1-7.1c0.5,3.7,1,7.6,1.3,10.2c0.9,8,4.9,7.5,4.6-0.2c-0.1-2.5-0.6-10.4-0.2-10.5
		c0.9,4.5,1.6,8,2.2,11.1c1.4,7.7,6.1,8.2,5-0.7c-0.4-3.3-1.9-10.8-1.5-11.1c1.6,3.5,3,6.2,4.1,8.3c3.7,6.9,7.3,4.5,4.5-2
		c-2.1-4.8-4.2-8.4-6.1-12.4c1.1-0.5,2.4,0.7,3.5,2.2c5.5,7.4,8.4,6.1,4.4-2.3c-1.2-2.4-1.9-2.9-3.2-5.3c-2.3-5.9-7-10.1-9-14.9
		c-5.6-13.1-3.6-26.5-6.6-39.9c-7.3-25-9-24.7-10.5-49.9c-0.7-16.8-3.4-29.9-21.5-38.3c-3.8-1.7-11.6-7.6-20.9-11.5
		c-1.7-0.7-1.8-3.8-1.7-8.3c2.4-3.5,3.5-6.1,4.7-10.9c3.5-2.5,4.1-5.4,3.5-10.2c-1.6-0.8-1.8-0.8-2.8-0.2
		c4.6-16.7,0.4-27.5-17.3-28.1c-18.3,0.3-20.3,13.1-16.9,28.2c-1-0.7-1.2-0.7-2.9,0.1c-0.6,4.8,0,7.8,3.7,10.3
		c0.6,3.8,2.1,7.2,4.3,10.4c-0.1,4.3-0.4,7.5-1.7,8.1c-8.8,3.9-19,11.2-23,13.2c-16.5,8.2-18.2,18.7-20.6,36.7
		c-1.3,24.1-2.3,28.6-8.6,51.1c-3.7,13.1-1.1,25.2-6.1,39.1c-3.6,6.4-6.5,6.4-9.7,13.6c-1.3,2.5-2.3,4.9-3.5,7.3
		c-4.1,8.3-1.1,9.7,4.4,2.3c1.1-1.5,2.6-4.6,3.8-4.1c-1.9,4-4.3,9.6-6.4,14.4c-2.8,6.5,0.8,8.9,4.5,2c1.1-2.1,2.4-4.8,4.1-8.3
		c0.5,0.2-1.1,7.7-1.5,11.1c-1,8.9,3.6,8.4,5,0.7c0.6-3.1,1.3-6.6,2.2-11.1c0.4,0,0,7.9-0.2,10.5c-0.4,7.7,3.7,8.2,4.6,0.2
		c0.3-2.5,0.8-6.5,1.3-10.2c0.3,0,0.8,4.8,1.1,7.1c0.7,5.5,4,5.5,4-0.7c0-3.9-0.7-8.3-1-13.2c-0.4-6.1,0.9-7.5,0.4-16.2
		c4.9-15.8,14.6-22.3,16.7-37.6c2-14.9,3-31.6,8.5-46.3c-1.5,25.3,7.1,36.7,0.6,65.8c-6.1,27.2-11.1,55.8-4.6,85
		c4.6,20.6,7.4,26.9,4.8,50.2c-2.2,19.8-0.3,32.7,8.6,59.6c1.9,5.8,2.8,10.1,3.7,15.3c1.3,7.8-0.6,12-3.3,19.4
		c-1.3,3.4-1.3,5.1,1.3,4.2c0.4-0.1,1.4,0.7,1.8,1.1c1.8,1.5,3.5-0.9,4.3,0.6c1.6,3.1,3.8,0.3,4.4,1.6c2.6,2.9,4,0.4,5.3,0.7
		c3.7,1.7,6,0.4,7-2.4c0.8,2.6,3.6,4.5,6.3,2.5c1.4-1,3.8,2.8,6-0.1c2-2.6,2.9,1.3,5.5-2.3c0.8-1.1,1.7,1.4,3.7-0.7
		c0.6-0.6,0.8-1.2,1.2-1c0.8,0.5,2.7,1.4,1.8-2.2c-2-7.8-5.2-13.8-3.8-21.5c1.1-6,2.1-9.7,4.7-16.8c7.3-20.2,8.1-36.1,7.6-53.7
		c-0.6-25.3-0.9-29.7,4.7-53c6.9-28.8,2.1-61.6-4-86.5c-6.7-27.2,3.1-43.4-0.1-65.9c7.9,17.4,5.2,33.6,9.6,46.1
		c3.5,10,15.1,27.3,16.3,36.3C-52.6,535.5-53.5,542.6-53.3,547.1L-53.3,547.1z"/>
</g>
</svg>
