<?xml version="1.0" encoding="utf-8"?>
<!-- Generator: Adobe Illustrator 19.0.0, SVG Export Plug-In . SVG Version: 6.00 Build 0)  -->
<svg version="1.1" xmlns="http://www.w3.org/2000/svg" xmlns:xlink="http://www.w3.org/1999/xlink" x="0px" y="0px"
	 viewBox="-326 328.9 426.5 424.1" style="enable-background:new -326 328.9 426.5 424.1;" xml:space="preserve">
<style type="text/css">
	.st0{fill-rule:evenodd;clip-rule:evenodd;}
</style>
<g id="Layer_1">
	<g id="Layer_1_1_">
		<g id="Layer_2">
		</g>
	</g>
</g>
<g id="Isolation_Mode_1_">
	<path class="st0" d="M-61.2,539.4c0.1,4.2-0.8,8-0.9,11.5c0,5.4,2.9,5.4,3.5,0.6c0.3-2,0.7-6.1,1-6.2c0.4,3.2,0.9,6.7,1.1,8.9
		c0.8,7,4.3,6.5,4-0.2c-0.1-2.2-0.5-9.1-0.1-9.1c0.8,4,1.4,7,1.9,9.7c1.2,6.8,5.3,7.1,4.4-0.6c-0.3-2.9-1.7-9.4-1.3-9.6
		c1.4,3.1,2.6,5.4,3.5,7.2c3.2,6,6.4,3.9,3.9-1.8c-1.8-4.2-3.6-7.3-5.3-10.8c1-0.5,2.1,0.6,3,1.9c4.8,6.4,7.3,5.3,3.8-2
		c-1-2.1-1.6-2.5-2.8-4.7c-2-5.2-6.1-8.8-7.9-13c-4.9-11.4-1.8-31.3-4.4-43c-5.4-18.5-7-25.7-8.1-41c-1.1-15.4-10.6-37.4-27.8-39.4
		c-6.2-0.7-6.2-4.2-13.9-4.3c-0.4-1.5-0.6-3-0.6-5.7c2.3-2.3,6-6.1,7.2-11c3,0,8.7-10.2,3.7-11c-3.9-0.7,10.7-21.9-9.4-27.4
		c1.7-4.8-4.6-9.1-9.5-9.1c-4.8,0-11.1,4.2-9.5,9c-19.1,5.3-4.9,25.9-9.8,27.6c-4.5,1.6,0.8,10.8,4.2,11.1c0.6,3.9,4.2,9.1,6.8,10.7
		c-0.1,3.1-0.6,4.4-1,6c-5.8,0.1-8.2,4-13.7,4.5c-15.5,1.4-26,20.9-27.3,38.7c-1.1,15.5-1.5,22.6-6.9,41.2
		c-2.6,11.7-1.9,31.6-6.8,43c-1.8,4.2-5.8,7.8-7.9,13c-1.2,2.1-1.8,2.5-2.8,4.7c-3.5,7.3-1,8.4,3.8,2c1-1.3,2-2.4,3-1.9
		c-1.7,3.5-3.5,6.7-5.3,10.8c-2.5,5.7,0.7,7.8,3.9,1.8c1-1.8,2.1-4.2,3.5-7.2c0.4,0.2-1,6.7-1.3,9.6c-0.9,7.7,3.2,7.3,4.4,0.6
		c0.5-2.7,1.1-5.8,1.9-9.7c0.3,0,0,6.9-0.1,9.1c-0.3,6.7,3.2,7.2,4,0.2c0.2-2.2,0.7-5.6,1.1-8.9c0.3,0,0.7,4.2,1,6.2
		c0.6,4.8,3.5,4.8,3.5-0.6c0-3.4-1-7.3-0.9-11.5c0.1-3.9-0.7-10-0.1-14.8c1-7.8,11.1-31.1,14.2-39.8c3-8.4,1.4-27.9,6.2-42.8
		c-0.7,3.9,0.5,8.1,3.5,10.4c-0.4,26.6,5.8,24.6-4,49c-9.1,22.8-12.3,40.3-5.7,75.4c2.9,12.7,2.1,30.2,5,42.8
		c-2.8,52.5,16.5,68.5,16.7,110.5c-0.6,7-3.3,9-4.6,16.5c-0.5,3,0.8,2.3,1.4,1.8c0.3-0.2,0.5,0.3,1,0.8c1.7,1.7,2.5-0.3,3.1,0.5
		c2.2,3.2,3-0.4,4.4,1.4c2,2.8,3.8-0.1,5.1,0.5c4.1,1.8,5.2-1.2,4.9-4.1c-1.1-8.1-3.4-11.2-5.1-18.5c0.8-27.6,2.1-44.6,0-73.1
		c-1.4-16.5-2.8-21.3-0.5-37.1c4.3-24.1,1.8-71.3,6.2-75.7c4,4.5,1.6,50.7,6.2,75.7c2.4,15.8,2.2,21.7,0.8,38.2
		c-2.2,28.5-1.7,44.7-0.8,72.3c-1.7,7.1-4.5,10.1-5.5,18.1c-0.4,2.9,0.7,5.9,4.9,4.1c1.3-0.6,3.1,2.3,5.1-0.5
		c1.3-1.9,2.2,1.7,4.4-1.4c0.6-0.9,1.4,1.1,3.1-0.5c0.5-0.5,0.7-1,1-0.8c0.7,0.4,2,1.2,1.4-1.8c-1.3-7.4-4-9.5-4.6-16.5
		c-1-36.7,19.3-59.2,16.6-110.5c2.9-12.7,2.1-30.2,5-42.8c6.9-37.1,6-51.4-5.6-78.2c-9.7-22.7-2.7-26-3.1-48.4
		c2.2-1.6,3.5-3.7,3.5-6.3c3.6,15.2,4.7,33.7,7.2,41c3.1,8.7,10.8,32,11.8,39.8C-60.5,529.4-61.3,535.5-61.2,539.4L-61.2,539.4z"/>
</g>
</svg>
