<?xml version="1.0" encoding="utf-8"?>
<!-- Generator: Adobe Illustrator 19.0.0, SVG Export Plug-In . SVG Version: 6.00 Build 0)  -->
<svg version="1.1" id="Layer_1" xmlns="http://www.w3.org/2000/svg" xmlns:xlink="http://www.w3.org/1999/xlink" x="0px" y="0px"
	 viewBox="-741 339 300 300" style="enable-background:new -741 339 300 300;" xml:space="preserve">
<g>
	<path d="M-674.4,639c-3.3,0-6.6-1.3-9.2-3.8l-53.6-53.6c-2.4-2.4-3.8-5.7-3.8-9.2s1.3-6.7,3.8-9.2l220.5-220.4
		c2.4-2.4,5.7-3.8,9.2-3.8s6.7,1.3,9.2,3.8l53.6,53.6c5,5,5,13.3,0,18.3l0,0l-220.6,220.5C-667.8,637.7-671.1,639-674.4,639z
		 M-726.6,572.4l52.2,52.2l219-219l-52.2-52.2L-726.6,572.4z"/>
	<path d="M-659.2,616.5c-1.8,0-3.6-0.7-4.9-2l-26.9-26.9c-2.7-2.7-2.7-7.1,0-9.9c2.7-2.7,7.1-2.7,9.9,0l26.9,26.9
		c2.7,2.7,2.7,7.1,0,9.9C-655.7,615.8-657.5,616.5-659.2,616.5z"/>
	<path d="M-627.2,587.9c-1.8,0-3.6-0.7-4.9-2l-17.6-17.6c-2.7-2.7-2.7-7.1,0-9.9c2.7-2.7,7.1-2.7,9.9,0l17.6,17.6
		c2.7,2.7,2.7,7.1,0,9.9C-623.7,587.2-625.5,587.9-627.2,587.9z"/>
	<path d="M-596.3,556.9c-1.8,0-3.6-0.7-4.9-2l-17.6-17.6c-2.7-2.7-2.7-7.1,0-9.9c2.7-2.7,7.1-2.7,9.9,0l17.6,17.6
		c2.7,2.7,2.7,7.1,0,9.9C-592.7,556.2-594.5,556.9-596.3,556.9z"/>
	<path d="M-530.7,491.4c-1.8,0-3.6-0.7-4.9-2l-17.6-17.6c-2.7-2.7-2.7-7.1,0-9.9c2.7-2.7,7.1-2.7,9.9,0l17.6,17.6
		c2.7,2.7,2.7,7.1,0,9.9C-527.2,490.7-529,491.4-530.7,491.4z"/>
	<path d="M-499.8,460.4c-1.8,0-3.6-0.7-4.9-2l-17.6-17.6c-2.7-2.7-2.7-7.1,0-9.9c2.7-2.7,7.1-2.7,9.9,0l17.6,17.6
		c2.7,2.7,2.7,7.1,0,9.9C-496.2,459.7-498,460.4-499.8,460.4z"/>
	<path d="M-564.9,522.1c-1.8,0-3.6-0.7-4.9-2l-26.9-26.9c-2.7-2.7-2.7-7.1,0-9.9c2.7-2.7,7.1-2.7,9.9,0l26.9,26.9
		c2.7,2.7,2.7,7.1,0,9.9C-561.3,521.4-563.1,522.1-564.9,522.1z"/>
	<path d="M-470.5,427.7c-1.8,0-3.6-0.7-4.9-2l-26.9-26.9c-2.7-2.7-2.7-7.1,0-9.9c2.7-2.7,7.1-2.7,9.9,0l26.9,26.9
		c2.7,2.7,2.7,7.1,0,9.9C-466.9,427.1-468.7,427.7-470.5,427.7z"/>
</g>
</svg>
