<?xml version="1.0" encoding="utf-8"?>
<!-- Generator: Adobe Illustrator 19.0.0, SVG Export Plug-In . SVG Version: 6.00 Build 0)  -->
<svg version="1.1" id="Layer_1" xmlns="http://www.w3.org/2000/svg" xmlns:xlink="http://www.w3.org/1999/xlink" x="0px" y="0px"
	 viewBox="-327 328 425 425" style="enable-background:new -327 328 425 425;" xml:space="preserve">
<style type="text/css">
	.st0{display:none;}
	.st1{display:inline;fill:#FFFFFF;}
	.st2{display:inline;}
	.st3{fill:#2E9BF0;}
	.st4{fill:#FF4C46;}
</style>
<g id="Layer_2">
</g>
<g class="st0">
	<path class="st1" d="M-566,1074c-113,0-205-92-205-205s92-205,205-205s205,92,205,205S-453,1074-566,1074z"/>
	<path class="st2" d="M-566,671.5c26.7,0,52.5,5.2,76.9,15.5c23.5,9.9,44.6,24.2,62.8,42.3c18.1,18.1,32.4,39.3,42.3,62.8
		c10.3,24.3,15.5,50.2,15.5,76.9s-5.2,52.5-15.5,76.9c-9.9,23.5-24.2,44.6-42.3,62.8c-18.1,18.1-39.3,32.4-62.8,42.3
		c-24.3,10.3-50.2,15.5-76.9,15.5s-52.5-5.2-76.9-15.5c-23.5-9.9-44.6-24.2-62.8-42.3c-18.1-18.1-32.4-39.3-42.3-62.8
		c-10.3-24.3-15.5-50.2-15.5-76.9s5.2-52.5,15.5-76.9c9.9-23.5,24.2-44.6,42.3-62.8c18.1-18.1,39.3-32.4,62.8-42.3
		C-618.5,676.7-592.7,671.5-566,671.5 M-566,656.5c-117.4,0-212.5,95.1-212.5,212.5s95.1,212.5,212.5,212.5s212.5-95.1,212.5-212.5
		S-448.6,656.5-566,656.5L-566,656.5z"/>
</g>
<g>
	<polygon id="XMLID_34_" points="-54.6,348.5 -174.8,348.5 -174.8,373.2 -126.9,373.2 -126.9,399 -102.4,399 -102.4,373.2 
		-54.6,373.2 	"/>
	
		<rect id="XMLID_33_" x="-13.4" y="430.3" transform="matrix(0.7071 0.7071 -0.7071 0.7071 317.5194 119.8199)" width="55.1" height="25.7"/>
	<path class="st3" d="M-114.6,443c71.2,0,129.2,58,129.2,129.2s-58,129.2-129.2,129.2s-129.2-58-129.2-129.2S-185.9,443-114.6,443"
		/>
	<g>
		<path class="st4" d="M-114.6,443c71.2,0,129.2,58,129.2,129.2s-58,129.2-129.2,129.2s-129.2-58-129.2-129.2S-185.9,443-114.6,443
			 M-114.6,421.2c-83.4,0-150.9,67.6-150.9,150.9S-197.9,723-114.6,723S36.3,655.5,36.3,572.1C36.2,488.8-31.4,421.2-114.6,421.2
			L-114.6,421.2z"/>
	</g>
	<path d="M-114.6,732.5c-88.4,0-160.4-71.9-160.4-160.4c0-88.4,71.9-160.4,160.4-160.4S45.8,483.6,45.8,572.1
		C45.8,660.6-26.2,732.5-114.6,732.5z M-114.6,430.8c-78,0-141.5,63.5-141.5,141.5s63.5,141.5,141.5,141.5S26.9,650.2,26.9,572.2
		C26.9,494.2-36.5,430.8-114.6,430.8z"/>
	<path d="M-114.6,580.1c-0.7,0-1.3-0.1-2-0.3c-3.5-0.9-6-4.1-6-7.7l-0.1-75.4c0-4.4,3.6-8,8-8l0,0c4.4,0,8,3.6,8,8v44.9l45.1-80.6
		c2.2-3.8,7-5.2,10.9-3.1c3.8,2.2,5.2,7,3.1,10.9l-60,107.2C-109.1,578.6-111.7,580.1-114.6,580.1z"/>
	<g>
		<path id="XMLID_1_" class="st4" d="M-114.6,547.8c-12.5,0-22.5,10.2-22.5,22.5c0,12.5,10.2,22.5,22.5,22.5s22.5-10.2,22.5-22.5
			C-92.1,557.8-102.1,547.8-114.6,547.8z"/>
		<path d="M-114.6,600.8c-16.8,0-30.5-13.7-30.5-30.5s13.7-30.5,30.5-30.5s30.5,13.7,30.5,30.5C-84.1,587.1-97.8,600.8-114.6,600.8z
			 M-114.6,555.8c-8,0-14.5,6.5-14.5,14.5s6.5,14.5,14.5,14.5c7.9,0,14.5-6.6,14.5-14.5C-100.1,562.2-106.5,555.8-114.6,555.8z"/>
	</g>
</g>
</svg>
