<?xml version="1.0" encoding="utf-8"?>
<!-- Generator: Adobe Illustrator 19.0.0, SVG Export Plug-In . SVG Version: 6.00 Build 0)  -->
<svg version="1.1" id="Layer_1" xmlns="http://www.w3.org/2000/svg" xmlns:xlink="http://www.w3.org/1999/xlink" x="0px" y="0px"
	 viewBox="-327 328 425 425" style="enable-background:new -327 328 425 425;" xml:space="preserve">
<style type="text/css">
	.st0{display:none;}
	.st1{display:inline;fill:#FFFFFF;}
	.st2{display:inline;}
	.st3{fill:#2E9BF0;}
	.st4{fill:#FF4C46;stroke:#000000;stroke-width:10;stroke-linejoin:round;stroke-miterlimit:10;}
	.st5{fill:none;stroke:#000000;stroke-width:10;stroke-miterlimit:10;}
</style>
<g class="st0">
	<path class="st1" d="M-439.8,1073.9c-113,0-205-92-205-205s92-205,205-205s205,92,205,205C-234.8,982-326.7,1073.9-439.8,1073.9z"
		/>
	<path class="st2" d="M-439.8,671.5c26.7,0,52.5,5.2,76.9,15.5c23.5,9.9,44.6,24.2,62.8,42.3c18.1,18.1,32.4,39.3,42.3,62.8
		c10.3,24.3,15.5,50.2,15.5,76.9s-5.2,52.5-15.5,76.9c-9.9,23.5-24.2,44.6-42.3,62.8c-18.1,18-39.3,32.3-62.8,42.2
		c-24.3,10.3-50.2,15.5-76.9,15.5c-26.7,0-52.5-5.2-76.9-15.5c-23.5-9.9-44.6-24.2-62.8-42.3c-18.1-18.1-32.4-39.3-42.3-62.8
		c-10.3-24.3-15.5-50.2-15.5-76.9s5.2-52.5,15.5-76.9c9.9-23.5,24.2-44.6,42.3-62.8c18.1-18.1,39.3-32.4,62.8-42.3
		C-492.3,676.7-466.4,671.5-439.8,671.5 M-439.8,656.5c-117.4,0-212.5,95.1-212.5,212.5s95.1,212.5,212.5,212.5
		s212.6-95.2,212.6-212.5S-322.4,656.5-439.8,656.5L-439.8,656.5z"/>
</g>
<g>
	<g>
		<path class="st3" d="M-129.3,718.5c-3.6,0-6.6-2.9-6.6-6.6l-0.4-42.2c-5.9-1.2-11.7-2.8-17.4-5c-4-1.5-7.9-3-11.5-4.8l0.2,2.4
			c0.1,1.8-0.5,3.7-1.7,5.1s-3,2.2-4.8,2.2h-26.1c-3.6,0-6.6-3-6.6-6.6v-79.2c0-3.6,3-6.6,6.6-6.6h22.1c3.3,0,6,2.4,6.5,5.6
			c2.9,17.7,8.9,30.7,17.9,39.2c9.1,8.5,20.4,12.5,34.9,12.5c5.3,0,9.8-0.7,13.8-2.2c3.7-1.3,6.9-3.3,9.3-5.7
			c2.4-2.3,4.4-5.2,5.7-8.5s2.1-6.9,2.1-10.9c0-4.4-1-8.1-2.9-10.9c-2.4-3.5-5.4-6.4-9.2-8.9c0,0-0.1,0-0.1-0.1
			c-4-2.8-8.8-5.3-14.5-7.6c-4.4-1.8-8.6-3.6-13.1-5.4l-5.7-2.4c-10.3-4.1-19.9-8.8-28.7-13.9c-9.6-5.4-17.7-11.6-24.7-18.7
			c-7.3-7-13.1-15.4-17.4-24.8c-4.4-9.3-6.5-20.2-6.5-32.4c0-7.4,1.1-15,3.3-22.6c2.3-8.2,6.3-15.8,11.8-22.7
			c5.8-7.1,13.5-13.1,23.1-17.7c8.2-4,18.1-6.5,29.7-7.6v-34.8c0-3.6,3-6.6,6.6-6.6h31.9c1.8,0,3.5,0.7,4.7,1.9
			c1.2,1.2,1.9,3,1.9,4.7l-0.4,39.3c4.6,1.5,9.1,3.3,13.3,5.4l-0.1-1.1c-0.1-1.8,0.5-3.7,1.7-5.1c1.2-1.3,3-2.2,5-2.2h26.1
			c3.6,0,6.6,3,6.6,6.6v79.2c0,3.6-3,6.6-6.6,6.6h-22.1c-3.3,0-6-2.3-6.5-5.6c-2.9-17.8-8.2-31.1-15.7-39.3
			c-7.3-8.1-17.5-12.1-31.4-12.1c-4.1,0-7.6,0.6-10.9,1.8c-3.1,1.2-5.7,2.7-7.7,4.6l-0.1,0.1c-2.1,1.9-3.6,4.2-4.7,6.9
			c0,0,0,0.1-0.1,0.1c-1.2,2.7-1.7,5.7-1.7,8.9c0,4.5,0.6,8.1,2.1,11.4c1.3,3,3.5,5.9,6.8,8.7c3.4,3,8.2,6.2,14.6,9.6
			c5.8,3.1,13.3,6.8,24.1,11.6c5.6,2.5,11.4,5.2,17.2,8c5.8,2.9,11.6,6,17.3,9.7c5.6,3.5,10.9,7.4,15.8,11.6s9.6,9.2,13.4,14.7
			c3.7,5.3,6.6,11.2,9.1,18.3c2.3,6.6,3.4,14.1,3.4,22.4c0,9.7-1.6,18.7-4.8,27c-3.3,8.5-8,16-13.8,22.2c-5.9,6.3-13.4,11.7-22.1,16
			c-7.1,3.4-15.1,5.9-23.8,7.6l-0.1,42.1c0,3.6-3,6.6-6.6,6.6h-31.1v0.2H-129.3z"/>
		<path d="M-101.7,376.6l-0.4,44.2c10,2.7,19.1,6.9,27.3,12.7h0.4l-1.2-13.9h26.1v79.2h-22.1c-3.1-19-8.8-33.2-17.4-42.7
			c-8.5-9.6-20.6-14.3-36.4-14.3c-4.8,0-9.2,0.7-13.2,2.2c-3.9,1.5-7.3,3.4-10,6c-2.8,2.5-5,5.7-6.4,9.3c-1.6,3.6-2.3,7.5-2.3,11.6
			c0,5.3,0.8,9.9,2.5,13.9s4.6,7.7,8.6,11.1c4,3.5,9.3,6.9,15.8,10.4s14.6,7.4,24.4,11.8c5.6,2.5,11.2,5.2,17,8
			c5.7,2.8,11.2,5.9,16.6,9.3c5.4,3.4,10.4,7.1,15.1,11.1s8.8,8.6,12.3,13.5c3.5,5,6.2,10.5,8.2,16.6c2.1,6,3,12.8,3,20.2
			c0,8.8-1.5,17-4.4,24.5s-7,14.3-12.5,20.1s-12,10.8-20,14.7c-8.1,3.9-17.3,6.5-27.6,8l-0.1,47.8h-31l-0.4-47.8
			c-7.3-1.1-14.5-2.9-21.8-5.6c-7.3-2.7-14.3-5.9-21-10h-0.4l1.2,14.4h-25.9v-79.2h22.1c3.1,19.2,9.8,33.5,19.9,42.9
			c10.3,9.6,23.5,14.3,39.4,14.3c6,0,11.4-0.8,16.1-2.5c4.6-1.7,8.6-4.1,11.7-7.1c3.1-3,5.6-6.6,7.3-10.8c1.7-4.1,2.5-8.6,2.5-13.4
			c0-5.7-1.3-10.6-4.1-14.6c-2.8-4-6.4-7.6-10.9-10.6c-4.5-3.1-9.8-5.9-15.8-8.3c-6-2.5-12.2-5.1-18.6-7.7
			c-9.8-4-19.1-8.5-27.9-13.5c-8.8-5.1-16.6-10.9-23.3-17.7c-6.8-6.6-12.1-14.3-16.1-22.9s-5.9-18.5-5.9-29.6c0-6.6,1-13.5,3-20.8
			s5.6-14,10.6-20.3c5.1-6.3,12-11.6,20.8-15.8c8.8-4.2,19.9-6.8,33.5-7.5v-41L-101.7,376.6 M-101.7,363.3h-31.7
			c-7.4,0-13.3,5.9-13.3,13.3v28.9c-9.8,1.5-18.5,4-26,7.5c-10.5,5-19,11.6-25.4,19.5c-6.2,7.6-10.5,16-13.1,25
			c-2.3,8.2-3.5,16.4-3.5,24.4c0,13.2,2.4,25,7.1,35.2c4.7,10,11,19,18.7,26.7c7.5,7.5,16.1,14,26.1,19.7c9.1,5.2,19,10,29.5,14.3
			l5.6,2.3c4.5,1.8,8.7,3.6,12.9,5.4c0.1,0,0.1,0,0.2,0.1c5.2,2.1,9.6,4.4,13.2,6.9c0.1,0,0.1,0.1,0.2,0.1c3,2.1,5.4,4.5,7.4,7.3
			c1.1,1.7,1.7,4,1.7,7c0,3.1-0.5,5.8-1.6,8.3c-1,2.4-2.4,4.6-4.2,6.3s-4.2,3.1-7,4.2c-3.3,1.2-7,1.7-11.5,1.7
			c-12.7,0-22.6-3.5-30.3-10.8c-7.9-7.4-13.3-19.2-15.8-35.3c-1.1-6.4-6.6-11.1-13.2-11.1h-22c-7.4,0-13.3,5.9-13.3,13.3v79.3
			c0,7.4,5.9,13.3,13.3,13.3h26.1c3.7,0,7.3-1.6,9.8-4.4c0.7-0.7,1.3-1.6,1.8-2.4c1.3,0.5,2.7,1.1,4.1,1.6c4.2,1.6,8.7,2.9,13.2,4
			l0.2,36.9c0,7.3,6,13.2,13.3,13.2h31c7.4,0,13.3-5.9,13.3-13.3l0.1-36.8c7.1-1.7,13.9-4.1,20.1-7c0,0,0,0,0.1,0
			c9.4-4.6,17.7-10.4,24.1-17.4c6.4-6.9,11.6-15.1,15.1-24.4c3.5-8.9,5.2-18.9,5.2-29.4c0-8.9-1.2-17.2-3.7-24.4
			c-2.5-7.6-5.8-14.1-9.9-19.9c-4.2-6-9.2-11.5-14.6-16c-5.2-4.5-10.8-8.5-16.6-12.2s-11.8-7.1-17.9-10H-83
			c-5.8-2.8-11.6-5.6-17.3-8.1c-10.6-4.8-17.9-8.3-23.7-11.5c-6-3.3-10.4-6-13.3-8.7l-0.1-0.1c-2.4-2.1-4.1-4.1-5-6.2
			c-1-2.3-1.5-5.2-1.5-8.7c0-2.4,0.4-4.5,1.2-6.3c0-0.1,0.1-0.2,0.1-0.4c0.7-1.7,1.7-3.3,3-4.5c0.1-0.1,0.1-0.1,0.2-0.2
			c1.3-1.2,3.1-2.3,5.4-3.1c2.5-1,5.3-1.3,8.6-1.3c12,0,20.6,3.1,26.5,9.8l0.1,0.1c6.6,7.3,11.4,19.3,14.1,35.9
			c1.1,6.4,6.6,11.1,13.2,11.1h22.1c7.4,0,13.3-5.9,13.3-13.3v-79.2c0-7.4-5.9-13.3-13.3-13.3h-26.1c-3.7,0-7.3,1.6-9.8,4.4
			c-0.4,0.5-0.7,1-1.1,1.5c-0.7-0.2-1.5-0.6-2.2-0.8l0.2-34.5c0-3.5-1.3-7-3.9-9.4C-94.7,364.7-98.1,363.3-101.7,363.3L-101.7,363.3
			z"/>
	</g>
</g>
<polygon class="st4" points="92.4,391.2 36.1,340.1 -20.2,391.2 8.5,391.2 8.5,475 63.6,475 63.6,391.2 "/>
<line class="st5" x1="-315.9" y1="345.7" x2="81" y2="742.7"/>
<line class="st5" x1="81" y1="345.7" x2="-315.9" y2="742.7"/>
</svg>
