<?xml version="1.0" encoding="utf-8"?>
<!-- Generator: Adobe Illustrator 19.0.0, SVG Export Plug-In . SVG Version: 6.00 Build 0)  -->
<svg version="1.1" id="Layer_1" xmlns="http://www.w3.org/2000/svg" xmlns:xlink="http://www.w3.org/1999/xlink" x="0px" y="0px"
	 viewBox="-349 351 300 300" style="enable-background:new -349 351 300 300;" xml:space="preserve">
<style type="text/css">
	.st0{fill:#999999;}
	.st1{clip-path:url(#SVGID_2_);}
	.st2{clip-path:url(#SVGID_4_);}
	.st3{clip-path:url(#SVGID_6_);}
	.st4{clip-path:url(#SVGID_8_);}
	.st5{clip-path:url(#SVGID_10_);}
	.st6{clip-path:url(#SVGID_12_);}
	.st7{clip-path:url(#SVGID_14_);}
	.st8{clip-path:url(#SVGID_16_);}
	.st9{clip-path:url(#SVGID_18_);}
	.st10{clip-path:url(#SVGID_20_);}
	.st11{clip-path:url(#SVGID_22_);}
	.st12{clip-path:url(#SVGID_24_);}
</style>
<g id="circle_outline">
	<path class="st0" d="M-102.7,365.6c11.9,0,21.5,9.6,21.5,21.5V615c0,11.9-9.6,21.5-21.5,21.5h-190.6c-11.9,0-21.5-9.6-21.5-21.5
		V387.1c0-11.9,9.6-21.5,21.5-21.5H-102.7 M-102.7,351.4h-190.6c-19.6,0-35.7,16.1-35.7,35.7V615c0,19.6,16.1,35.7,35.7,35.7h190.7
		c19.6,0,35.7-16.1,35.7-35.7V387.1C-67,367.5-83.1,351.4-102.7,351.4L-102.7,351.4z"/>
	<path class="st0" d="M-138.1,398.8c5.2,0,9.6,4.4,9.6,9.6v39.9c0,5.2-4.4,9.6-9.6,9.6h-119.8c-5.2,0-9.6-4.4-9.6-9.6v-39.9
		c0-5.2,4.4-9.6,9.6-9.6H-138.1 M-138.1,384.6h-119.8c-13.1,0-23.8,10.7-23.8,23.8v39.9c0,13.1,10.7,23.8,23.8,23.8h119.8
		c13.1,0,23.8-10.7,23.8-23.8v-39.9C-114.3,395.2-125,384.6-138.1,384.6L-138.1,384.6z"/>
	<g>
		<g>
			<defs>
				<path id="SVGID_1_" d="M-247.2,617.2L-247.2,617.2c-19,0-34.5-15.5-34.5-34.5V529c0-19,15.5-34.5,34.5-34.5l0,0
					c19,0,34.5,15.5,34.5,34.5v53.7C-212.7,601.7-228.2,617.2-247.2,617.2z"/>
			</defs>
			<clipPath id="SVGID_2_">
				<use xlink:href="#SVGID_1_"  style="overflow:visible;"/>
			</clipPath>
			<g class="st1">
				<rect x="-281.7" y="494.6" class="st0" width="69" height="11.2"/>
			</g>
		</g>
		<g>
			<defs>
				<path id="SVGID_3_" d="M-247.2,617.2L-247.2,617.2c-19,0-34.5-15.5-34.5-34.5V529c0-19,15.5-34.5,34.5-34.5l0,0
					c19,0,34.5,15.5,34.5,34.5v53.7C-212.7,601.7-228.2,617.2-247.2,617.2z"/>
			</defs>
			<clipPath id="SVGID_4_">
				<use xlink:href="#SVGID_3_"  style="overflow:visible;"/>
			</clipPath>
			<g class="st2">
				<rect x="-281.7" y="516.9" class="st0" width="69" height="11.2"/>
			</g>
		</g>
		<g>
			<defs>
				<path id="SVGID_5_" d="M-247.2,617.2L-247.2,617.2c-19,0-34.5-15.5-34.5-34.5V529c0-19,15.5-34.5,34.5-34.5l0,0
					c19,0,34.5,15.5,34.5,34.5v53.7C-212.7,601.7-228.2,617.2-247.2,617.2z"/>
			</defs>
			<clipPath id="SVGID_6_">
				<use xlink:href="#SVGID_5_"  style="overflow:visible;"/>
			</clipPath>
			<g class="st3">
				<rect x="-281.7" y="539.2" class="st0" width="69" height="11.2"/>
			</g>
		</g>
		<g>
			<defs>
				<path id="SVGID_7_" d="M-247.2,617.2L-247.2,617.2c-19,0-34.5-15.5-34.5-34.5V529c0-19,15.5-34.5,34.5-34.5l0,0
					c19,0,34.5,15.5,34.5,34.5v53.7C-212.7,601.7-228.2,617.2-247.2,617.2z"/>
			</defs>
			<clipPath id="SVGID_8_">
				<use xlink:href="#SVGID_7_"  style="overflow:visible;"/>
			</clipPath>
			<g class="st4">
				<rect x="-281.7" y="561.5" class="st0" width="69" height="11.2"/>
			</g>
		</g>
		<g>
			<defs>
				<path id="SVGID_9_" d="M-247.2,617.2L-247.2,617.2c-19,0-34.5-15.5-34.5-34.5V529c0-19,15.5-34.5,34.5-34.5l0,0
					c19,0,34.5,15.5,34.5,34.5v53.7C-212.7,601.7-228.2,617.2-247.2,617.2z"/>
			</defs>
			<clipPath id="SVGID_10_">
				<use xlink:href="#SVGID_9_"  style="overflow:visible;"/>
			</clipPath>
			<g class="st5">
				<rect x="-281.7" y="583.8" class="st0" width="69" height="11.2"/>
			</g>
		</g>
		<g>
			<defs>
				<path id="SVGID_11_" d="M-247.2,617.2L-247.2,617.2c-19,0-34.5-15.5-34.5-34.5V529c0-19,15.5-34.5,34.5-34.5l0,0
					c19,0,34.5,15.5,34.5,34.5v53.7C-212.7,601.7-228.2,617.2-247.2,617.2z"/>
			</defs>
			<clipPath id="SVGID_12_">
				<use xlink:href="#SVGID_11_"  style="overflow:visible;"/>
			</clipPath>
			<g class="st6">
				<rect x="-281.7" y="606" class="st0" width="69" height="11.2"/>
			</g>
		</g>
	</g>
	<g>
		<g>
			<defs>
				<path id="SVGID_13_" d="M-148.8,617.2L-148.8,617.2c-19,0-34.5-15.5-34.5-34.5V529c0-19,15.5-34.5,34.5-34.5l0,0
					c19,0,34.5,15.5,34.5,34.5v53.7C-114.3,601.7-129.8,617.2-148.8,617.2z"/>
			</defs>
			<clipPath id="SVGID_14_">
				<use xlink:href="#SVGID_13_"  style="overflow:visible;"/>
			</clipPath>
			<g class="st7">
				<rect x="-183.3" y="494.6" class="st0" width="69" height="11.2"/>
			</g>
		</g>
		<g>
			<defs>
				<path id="SVGID_15_" d="M-148.8,617.2L-148.8,617.2c-19,0-34.5-15.5-34.5-34.5V529c0-19,15.5-34.5,34.5-34.5l0,0
					c19,0,34.5,15.5,34.5,34.5v53.7C-114.3,601.7-129.8,617.2-148.8,617.2z"/>
			</defs>
			<clipPath id="SVGID_16_">
				<use xlink:href="#SVGID_15_"  style="overflow:visible;"/>
			</clipPath>
			<g class="st8">
				<rect x="-183.3" y="516.9" class="st0" width="69" height="11.2"/>
			</g>
		</g>
		<g>
			<defs>
				<path id="SVGID_17_" d="M-148.8,617.2L-148.8,617.2c-19,0-34.5-15.5-34.5-34.5V529c0-19,15.5-34.5,34.5-34.5l0,0
					c19,0,34.5,15.5,34.5,34.5v53.7C-114.3,601.7-129.8,617.2-148.8,617.2z"/>
			</defs>
			<clipPath id="SVGID_18_">
				<use xlink:href="#SVGID_17_"  style="overflow:visible;"/>
			</clipPath>
			<g class="st9">
				<rect x="-183.3" y="539.2" class="st0" width="69" height="11.2"/>
			</g>
		</g>
		<g>
			<defs>
				<path id="SVGID_19_" d="M-148.8,617.2L-148.8,617.2c-19,0-34.5-15.5-34.5-34.5V529c0-19,15.5-34.5,34.5-34.5l0,0
					c19,0,34.5,15.5,34.5,34.5v53.7C-114.3,601.7-129.8,617.2-148.8,617.2z"/>
			</defs>
			<clipPath id="SVGID_20_">
				<use xlink:href="#SVGID_19_"  style="overflow:visible;"/>
			</clipPath>
			<g class="st10">
				<rect x="-183.3" y="561.5" class="st0" width="69" height="11.2"/>
			</g>
		</g>
		<g>
			<defs>
				<path id="SVGID_21_" d="M-148.8,617.2L-148.8,617.2c-19,0-34.5-15.5-34.5-34.5V529c0-19,15.5-34.5,34.5-34.5l0,0
					c19,0,34.5,15.5,34.5,34.5v53.7C-114.3,601.7-129.8,617.2-148.8,617.2z"/>
			</defs>
			<clipPath id="SVGID_22_">
				<use xlink:href="#SVGID_21_"  style="overflow:visible;"/>
			</clipPath>
			<g class="st11">
				<rect x="-183.3" y="583.8" class="st0" width="69" height="11.2"/>
			</g>
		</g>
		<g>
			<defs>
				<path id="SVGID_23_" d="M-148.8,617.2L-148.8,617.2c-19,0-34.5-15.5-34.5-34.5V529c0-19,15.5-34.5,34.5-34.5l0,0
					c19,0,34.5,15.5,34.5,34.5v53.7C-114.3,601.7-129.8,617.2-148.8,617.2z"/>
			</defs>
			<clipPath id="SVGID_24_">
				<use xlink:href="#SVGID_23_"  style="overflow:visible;"/>
			</clipPath>
			<g class="st12">
				<rect x="-183.3" y="606" class="st0" width="69" height="11.2"/>
			</g>
		</g>
	</g>
	<circle class="st0" cx="-198" cy="457.1" r="14.8"/>
	<polygon class="st0" points="-204.3,463.6 -250.6,415.9 -191.7,446.5 	"/>
</g>
</svg>
