<?xml version="1.0" encoding="utf-8"?>
<!-- Generator: Adobe Illustrator 19.0.0, SVG Export Plug-In . SVG Version: 6.00 Build 0)  -->
<svg version="1.1" id="Layer_1" xmlns="http://www.w3.org/2000/svg" xmlns:xlink="http://www.w3.org/1999/xlink" x="0px" y="0px"
	 viewBox="-327 328 425 425" style="enable-background:new -327 328 425 425;" xml:space="preserve">
<style type="text/css">
	.st0{fill:none;}
	.st1{fill:#FF4C46;}
	.st2{fill:#2E9BF0;}
	.st3{fill:#FFFFFF;}
</style>
<g id="XMLID_431_">
	<circle id="XMLID_441_" class="st0" cx="-114.6" cy="490.5" r="88.9"/>
	<path d="M-23.2,584c-2.2,2.1-4.2,4.2-5.2,6.4c-2.6,5.8-16.8,16.8-26.2,19.7s-16.5,3.9-28.5,6.5c-8.8,1.9-14,5.7-20.9,8.5l67,111.3
		l15.4-62.2l61.9,15.3L-23.2,584z"/>
	<path d="M-142.4,619c-6.8-4.5-17.8-2.6-27.2-6.5s-27.2-12.6-30.8-21c-1.2-2.9-3.3-5.4-5.6-7.3l-63.4,105.5l61.9-15.3l15.3,62.2
		l66.1-109.5C-132.6,625.2-138.2,621.8-142.4,619z"/>
	<g>
		<path id="XMLID_1_" class="st1" d="M9.6,456.8c-3.1-11.1-1.1-24.5-6.6-34.5c-5.8-9.9-18.3-15-26.5-23.2s-13.1-20.8-23.2-26.5
			c-9.7-5.8-23.2-3.7-34.5-6.6c-10.9-2.8-21.5-11.4-33.1-11.4c-11.8,0-22.4,8.6-33.1,11.4c-11.1,3.1-24.5,1.1-34.5,6.6
			c-9.9,5.8-15,18.3-23.2,26.5s-20.8,13.1-26.5,23.2c-5.8,9.7-3.7,23.2-6.6,34.5c-2.8,10.9-11.4,21.5-11.4,33.1
			c0,11.8,8.6,22.4,11.4,33.1c3.1,11.1,1.1,24.5,6.6,34.5c5.8,9.9,18.3,15,26.5,23.2s13.1,20.8,23.2,26.5c9.7,5.8,23.2,3.7,34.5,6.6
			c10.9,2.8,21.5,11.4,33.1,11.4c11.8,0,22.4-8.6,33.1-11.4c11.1-3.1,24.5-1.1,34.5-6.6c9.9-5.8,15-18.3,23.2-26.5
			s20.8-13.1,26.6-23.1c5.8-9.7,3.7-23.2,6.6-34.5c2.8-10.9,11.4-21.5,11.4-33.1C21.1,478.3,12.9,467.8,9.6,456.8z M-114.6,579.2
			c-49.2,0-88.9-40-88.9-88.9c0-49.2,40-88.9,88.9-88.9s88.9,40,88.9,88.9C-25.5,539.5-65.4,579.2-114.6,579.2z"/>
		<g>
			<g>
				<path d="M-114.6,394.6c52.5,0,95.4,42.8,95.4,95.4c0,52.5-42.8,95.4-95.4,95.4S-210,542.8-210,490S-167.1,394.6-114.6,394.6
					 M-114.6,386.8c-56.9,0-103.2,46.4-103.2,103.2c0,56.9,46.4,103.2,103.2,103.2S-11.4,546.8-11.4,490S-57.7,386.8-114.6,386.8
					L-114.6,386.8z"/>
			</g>
			<g>
				<path d="M20.5,466.5c-1.8-4-3.5-7.8-4.6-11.4c-1.1-3.9-1.5-8.4-1.9-12.9c-0.6-7.8-1.3-15.8-5.4-23.2c-4.1-7.3-11-12.1-17.5-16.7
					c-3.8-2.6-7.3-5.2-9.9-7.9c-2.7-2.8-5.2-6.4-7.8-9.9c-4.6-6.6-9.3-13.5-16.7-17.5c-7.1-4.3-15.4-5-23.3-5.6
					c-4.6-0.2-9-0.6-12.9-1.8c-3.7-0.9-7.7-2.8-11.7-4.7c-6.9-3.2-14.7-6.9-23.2-6.9s-16.4,3.7-23.2,6.9c-4,1.9-8,3.8-11.8,4.7
					c-3.9,1.1-8.4,1.5-12.9,1.9c-7.8,0.6-15.8,1.3-23.2,5.4c-7.3,4.1-12.1,11-16.7,17.5c-2.6,3.8-5.2,7.3-7.9,9.9
					c-2.8,2.7-6.4,5.2-9.9,7.8c-6.6,4.6-13.5,9.3-17.5,16.7c-4.3,7.1-5,15.4-5.6,23.3c-0.2,4.6-0.6,9-1.8,12.9
					c-0.9,3.7-2.8,7.7-4.7,11.7c-3.2,6.9-6.9,14.7-6.9,23.2s3.7,16.4,6.9,23.2c1.9,4,3.8,8,4.7,11.8c1.1,3.9,1.5,8.4,1.9,12.9
					c0.6,7.8,1.3,15.8,5.4,23.2c4.1,7.3,11,12.1,17.5,16.7c3.8,2.6,7.3,5.2,9.9,7.9c2.7,2.8,5.2,6.4,7.8,9.9
					c4.6,6.6,9.3,13.5,16.7,17.5c7.1,4.3,15.4,5,23.3,5.6c4.6,0.4,9,0.6,12.9,1.8c3.7,0.9,7.7,2.8,11.7,4.7
					c6.9,3.2,14.7,6.9,23.2,6.9s16.3-3.7,23.2-6.9c4-1.9,8-3.8,11.8-4.7c3.9-1.1,8.4-1.5,12.9-1.9c7.8-0.6,15.8-1.3,23.2-5.4
					s12.1-11,16.7-17.5c2.6-3.8,5.2-7.3,7.9-9.9c2.8-2.7,6.3-5.2,9.9-7.8c6.7-4.6,13.5-9.3,17.5-16.7c4.1-7.1,5-15.4,5.6-23.3
					c0.2-4.6,0.6-9,1.8-12.9c0.9-3.7,2.8-7.7,4.7-11.7c3.2-6.9,6.9-14.7,6.9-23.2C27.8,481.4,23.9,473.6,20.5,466.5z M9.6,523.2
					c-3,11.4-0.8,24.7-6.6,34.5c-5.7,9.9-18.3,15-26.5,23.2s-13.2,20.7-23.2,26.6c-9.9,5.6-23.4,3.5-34.5,6.6
					c-10.9,2.7-21.4,11.4-33.1,11.4s-22.4-8.5-33.1-11.4c-11.4-3-24.7-0.8-34.5-6.6c-9.9-5.7-15-18.3-23.2-26.5
					s-20.7-13.2-26.5-23.2c-5.6-9.9-3.5-23.4-6.6-34.5c-2.7-10.9-11.4-21.4-11.4-33.1s8.5-22.4,11.4-33.1c3-11.4,0.8-24.7,6.6-34.5
					c5.7-9.9,18.3-15,26.5-23.2s13.1-20.7,23.2-26.5c9.9-5.6,23.4-3.5,34.5-6.6c10.9-2.7,21.4-11.4,33.1-11.4s22.4,8.5,33.1,11.4
					c11.4,3,24.7,0.8,34.5,6.6c9.9,5.7,15,18.3,23.2,26.5S-2.8,412.5,3,422.6c5.6,9.9,3.5,23.4,6.6,34.5c3.1,11,11.5,21.5,11.4,33.1
					C21,501.6,12.4,512.3,9.6,523.2z"/>
				<path d="M-114.7,636.2c-9.5,0-18-4-24.8-7.2c-3.8-1.8-7.7-3.8-10.9-4.5h-0.1c-3.2-1-6.8-1.2-10.8-1.5l-1.5-0.1
					c-7.9-0.6-16.9-1.4-24.7-6c-7.9-4.3-12.7-11.2-17.5-17.9l-0.9-1.3c-2.4-3.3-4.6-6.5-7-9s-5.9-5-9.4-7.3l-1.2-0.9
					c-6.5-4.6-13.2-9.5-17.5-17.2c-4.5-8.1-5.2-16.5-5.9-24.6v-0.2c-0.3-4-0.9-8.5-1.8-12.3c-1-3.6-2.8-7.4-4.5-11.1
					c-2.9-6-7.2-15.1-7.2-24.8c0-9.5,4-18,7.2-24.8c1.8-3.8,3.8-7.7,4.5-10.9v-0.1c1-3.6,1.4-7.3,1.6-12.1V442
					c0.6-7.9,1.4-16.9,6-24.7c4.3-7.9,11.2-12.7,17.9-17.5l1.3-0.9c3.3-2.4,6.5-4.6,9-7s5-5.9,7.3-9.4l0.9-1.2
					c4.6-6.5,9.5-13.2,17.2-17.5c8.1-4.5,16.5-5.2,24.6-5.9h0.1c4-0.3,8.5-0.9,12.3-1.8c3.6-1,7.4-2.8,11.1-4.5
					c6-2.9,15.1-7.2,24.8-7.2c9.5,0,18,4,24.8,7.2c3.8,1.8,7.7,3.8,10.9,4.5h0.1c3.6,1,7.3,1.4,12.1,1.6h0.3
					c7.9,0.6,16.9,1.4,24.7,6c7.9,4.3,12.7,11.2,17.5,17.9l0.9,1.3c2.4,3.3,4.6,6.5,7,9.1c2.4,2.5,5.9,5,9.4,7.3l1.2,0.9
					c6.5,4.6,13.2,9.5,17.5,17.2c4.5,8.1,5.2,16.5,5.9,24.6v0.1c0.3,3.9,0.9,8.4,1.8,12.2c1.1,3.5,2.8,7.2,4.4,10.9l0.4,1
					c3.2,7.1,7,15.1,6.9,24.2c0,9.5-4,17.9-7.2,24.8c-1.8,3.8-3.8,7.7-4.5,10.9v0.1c-1,3.6-1.4,7.3-1.6,12.1c-0.6,7.7-1.4,16.9-6,25
					C7.8,571.1,0.8,576-5.9,580.8l-0.8,0.5c-3.3,2.3-6.8,4.7-9.5,7.4c-2.5,2.4-5,5.9-7.3,9.4l-0.9,1.2c-4.6,6.5-9.5,13.2-17.2,17.5
					c-8.1,4.5-16.5,5.2-24.6,5.9h-0.1c-4,0.3-8.5,0.9-12.3,1.8c-3.6,1-7.4,2.8-11.1,4.5C-96.6,632.2-105.2,636.2-114.7,636.2z
					 M-114.6,358.4c-6.3,0-12.2,2.8-18.6,5.8c-4.4,2.1-9,4.2-13.6,5.4c-4.7,1.3-9.9,1.7-14.9,2.2c-7,0.5-13.6,1.2-18.8,4.1
					c-5.4,3.1-9.3,8.6-13.3,14.5c-2.7,3.9-5.6,8-9,11.4c-3.5,3.5-7.6,6.3-11.4,9.1c-5.8,4.1-11.4,8-14.5,13.3s-3.7,12-4.2,19
					c-0.4,4.9-0.8,9.8-2.1,14.6c-1.2,4.5-3.2,9-5.3,13.3c-3,6.5-5.9,12.6-5.9,18.9s2.8,12.2,5.8,18.6c2.1,4.4,4.2,9,5.4,13.6
					c1.3,4.7,1.7,9.9,2.2,14.9c0.5,7,1.2,13.6,4.1,18.8c3.1,5.3,8.6,9.2,14.5,13.3c4,2.8,8,5.6,11.4,9.1s6.3,7.6,9.1,11.4
					c4.1,5.8,8,11.4,13.3,14.5s12,3.7,19,4.2c4.9,0.4,9.8,0.8,14.6,2.1c4.5,1.2,9,3.2,13.3,5.3c6.5,3,12.6,5.9,18.9,5.9
					s12.2-2.8,18.6-5.8c4.4-2.1,9-4.2,13.6-5.4c4.7-1.3,9.9-1.7,14.9-2.2c7-0.5,13.6-1.2,18.8-4.1c5.3-3.1,9.2-8.6,13.3-14.5
					c2.8-4,5.6-8,9.1-11.4c3.5-3.5,7.6-6.3,11.4-9.1c5.8-4.1,11.4-8,14.5-13.3s3.7-12,4.2-19c0.4-4.9,0.8-9.8,2.1-14.6l0,0
					c1.2-4.6,3.3-9.1,5.4-13.4c3-6.5,5.9-12.5,5.9-18.8c0.1-6.4-2.8-12.5-5.9-19.1c-1.9-4.2-4-8.5-5.3-12.9c-1.4-4.9-1.8-10-2.2-15
					c-0.5-7-1.2-13.6-4.1-18.8c-3.1-5.4-8.6-9.3-14.5-13.3c-3.9-2.7-8-5.6-11.4-9c-3.5-3.5-6.3-7.6-9.1-11.4
					c-4.1-5.8-8-11.4-13.3-14.5s-12-3.7-19-4.2c-4.9-0.4-9.8-0.8-14.6-2.1c-4.5-1.2-9-3.2-13.3-5.3
					C-102.1,361.3-108.2,358.4-114.6,358.4z"/>
			</g>
		</g>
	</g>
	<g id="XMLID_435_">
		<path d="M-114.6,401.5c49.1,0,88.9,39.8,88.9,88.9s-39.8,88.9-88.9,88.9s-88.9-39.8-88.9-88.9S-163.6,401.5-114.6,401.5
			 M-114.6,390.8c-55,0-99.7,44.8-99.7,99.7s44.8,99.7,99.7,99.7s99.7-44.8,99.7-99.7S-59.5,390.8-114.6,390.8L-114.6,390.8z"/>
	</g>
	<path class="st2" d="M-114.6,401.5c49.1,0,88.9,39.8,88.9,88.9s-39.8,88.9-88.9,88.9s-88.9-39.8-88.9-88.9
		S-163.6,401.5-114.6,401.5"/>
	<polygon class="st3" points="-114.2,524.8 -158.1,553.8 -143.9,503.2 -185.1,470.5 -132.6,468.5 -114.2,419.2 -96.2,468.5 
		-43.7,470.5 -84.9,503.2 -70.7,553.8 	"/>
</g>
</svg>
