<?xml version="1.0" encoding="utf-8"?>
<!-- Generator: Adobe Illustrator 19.0.0, SVG Export Plug-In . SVG Version: 6.00 Build 0)  -->
<svg version="1.1" id="Layer_1" xmlns="http://www.w3.org/2000/svg" xmlns:xlink="http://www.w3.org/1999/xlink" x="0px" y="0px"
	 viewBox="-741 339 300 300" style="enable-background:new -741 339 300 300;" xml:space="preserve">
<style type="text/css">
	.st0{clip-path:url(#SVGID_2_);}
	.st1{clip-path:url(#SVGID_4_);}
	.st2{clip-path:url(#SVGID_6_);}
	.st3{clip-path:url(#SVGID_8_);}
	.st4{clip-path:url(#SVGID_10_);}
	.st5{clip-path:url(#SVGID_12_);}
	.st6{clip-path:url(#SVGID_14_);}
	.st7{clip-path:url(#SVGID_16_);}
	.st8{clip-path:url(#SVGID_18_);}
	.st9{clip-path:url(#SVGID_20_);}
	.st10{clip-path:url(#SVGID_22_);}
	.st11{clip-path:url(#SVGID_24_);}
</style>
<g id="circle_outline">
	<path d="M-495.8,353.6c11.9,0,21.5,9.6,21.5,21.5V603c0,11.9-9.6,21.5-21.5,21.5h-190.6c-11.9,0-21.5-9.6-21.5-21.5V375.1
		c0-11.9,9.6-21.5,21.5-21.5H-495.8 M-495.8,339.4h-190.6c-19.6,0-35.7,16.1-35.7,35.7V603c0,19.6,16.1,35.7,35.7,35.7h190.7
		c19.6,0,35.7-16.1,35.7-35.7V375.1C-460,355.5-476.1,339.4-495.8,339.4L-495.8,339.4z"/>
	<path d="M-531.2,386.8c5.2,0,9.6,4.4,9.6,9.6v39.9c0,5.2-4.4,9.6-9.6,9.6H-651c-5.2,0-9.6-4.4-9.6-9.6v-39.9c0-5.2,4.4-9.6,9.6-9.6
		H-531.2 M-531.2,372.6H-651c-13.1,0-23.8,10.7-23.8,23.8v39.9c0,13.1,10.7,23.8,23.8,23.8h119.8c13.1,0,23.8-10.7,23.8-23.8v-39.9
		C-507.3,383.2-518,372.6-531.2,372.6L-531.2,372.6z"/>
	<g>
		<g>
			<g>
				<defs>
					<path id="SVGID_1_" d="M-640.2,605.2L-640.2,605.2c-19,0-34.5-15.5-34.5-34.5V517c0-19,15.5-34.5,34.5-34.5l0,0
						c19,0,34.5,15.5,34.5,34.5v53.7C-605.8,589.7-621.2,605.2-640.2,605.2z"/>
				</defs>
				<clipPath id="SVGID_2_">
					<use xlink:href="#SVGID_1_"  style="overflow:visible;"/>
				</clipPath>
				<g class="st0">
					<rect x="-674.8" y="482.6" width="69" height="11.2"/>
				</g>
			</g>
		</g>
		<g>
			<g>
				<defs>
					<path id="SVGID_3_" d="M-640.2,605.2L-640.2,605.2c-19,0-34.5-15.5-34.5-34.5V517c0-19,15.5-34.5,34.5-34.5l0,0
						c19,0,34.5,15.5,34.5,34.5v53.7C-605.8,589.7-621.2,605.2-640.2,605.2z"/>
				</defs>
				<clipPath id="SVGID_4_">
					<use xlink:href="#SVGID_3_"  style="overflow:visible;"/>
				</clipPath>
				<g class="st1">
					<rect x="-674.8" y="504.9" width="69" height="11.2"/>
				</g>
			</g>
		</g>
		<g>
			<g>
				<defs>
					<path id="SVGID_5_" d="M-640.2,605.2L-640.2,605.2c-19,0-34.5-15.5-34.5-34.5V517c0-19,15.5-34.5,34.5-34.5l0,0
						c19,0,34.5,15.5,34.5,34.5v53.7C-605.8,589.7-621.2,605.2-640.2,605.2z"/>
				</defs>
				<clipPath id="SVGID_6_">
					<use xlink:href="#SVGID_5_"  style="overflow:visible;"/>
				</clipPath>
				<g class="st2">
					<rect x="-674.8" y="527.2" width="69" height="11.2"/>
				</g>
			</g>
		</g>
		<g>
			<g>
				<defs>
					<path id="SVGID_7_" d="M-640.2,605.2L-640.2,605.2c-19,0-34.5-15.5-34.5-34.5V517c0-19,15.5-34.5,34.5-34.5l0,0
						c19,0,34.5,15.5,34.5,34.5v53.7C-605.8,589.7-621.2,605.2-640.2,605.2z"/>
				</defs>
				<clipPath id="SVGID_8_">
					<use xlink:href="#SVGID_7_"  style="overflow:visible;"/>
				</clipPath>
				<g class="st3">
					<rect x="-674.8" y="549.5" width="69" height="11.2"/>
				</g>
			</g>
		</g>
		<g>
			<g>
				<defs>
					<path id="SVGID_9_" d="M-640.2,605.2L-640.2,605.2c-19,0-34.5-15.5-34.5-34.5V517c0-19,15.5-34.5,34.5-34.5l0,0
						c19,0,34.5,15.5,34.5,34.5v53.7C-605.8,589.7-621.2,605.2-640.2,605.2z"/>
				</defs>
				<clipPath id="SVGID_10_">
					<use xlink:href="#SVGID_9_"  style="overflow:visible;"/>
				</clipPath>
				<g class="st4">
					<rect x="-674.8" y="571.8" width="69" height="11.2"/>
				</g>
			</g>
		</g>
		<g>
			<g>
				<defs>
					<path id="SVGID_11_" d="M-640.2,605.2L-640.2,605.2c-19,0-34.5-15.5-34.5-34.5V517c0-19,15.5-34.5,34.5-34.5l0,0
						c19,0,34.5,15.5,34.5,34.5v53.7C-605.8,589.7-621.2,605.2-640.2,605.2z"/>
				</defs>
				<clipPath id="SVGID_12_">
					<use xlink:href="#SVGID_11_"  style="overflow:visible;"/>
				</clipPath>
				<g class="st5">
					<rect x="-674.8" y="594" width="69" height="11.2"/>
				</g>
			</g>
		</g>
	</g>
	<g>
		<g>
			<g>
				<defs>
					<path id="SVGID_13_" d="M-541.8,605.2L-541.8,605.2c-19,0-34.5-15.5-34.5-34.5V517c0-19,15.5-34.5,34.5-34.5l0,0
						c19,0,34.5,15.5,34.5,34.5v53.7C-507.3,589.7-522.8,605.2-541.8,605.2z"/>
				</defs>
				<clipPath id="SVGID_14_">
					<use xlink:href="#SVGID_13_"  style="overflow:visible;"/>
				</clipPath>
				<g class="st6">
					<rect x="-576.3" y="482.6" width="69" height="11.2"/>
				</g>
			</g>
		</g>
		<g>
			<g>
				<defs>
					<path id="SVGID_15_" d="M-541.8,605.2L-541.8,605.2c-19,0-34.5-15.5-34.5-34.5V517c0-19,15.5-34.5,34.5-34.5l0,0
						c19,0,34.5,15.5,34.5,34.5v53.7C-507.3,589.7-522.8,605.2-541.8,605.2z"/>
				</defs>
				<clipPath id="SVGID_16_">
					<use xlink:href="#SVGID_15_"  style="overflow:visible;"/>
				</clipPath>
				<g class="st7">
					<rect x="-576.3" y="504.9" width="69" height="11.2"/>
				</g>
			</g>
		</g>
		<g>
			<g>
				<defs>
					<path id="SVGID_17_" d="M-541.8,605.2L-541.8,605.2c-19,0-34.5-15.5-34.5-34.5V517c0-19,15.5-34.5,34.5-34.5l0,0
						c19,0,34.5,15.5,34.5,34.5v53.7C-507.3,589.7-522.8,605.2-541.8,605.2z"/>
				</defs>
				<clipPath id="SVGID_18_">
					<use xlink:href="#SVGID_17_"  style="overflow:visible;"/>
				</clipPath>
				<g class="st8">
					<rect x="-576.3" y="527.2" width="69" height="11.2"/>
				</g>
			</g>
		</g>
		<g>
			<g>
				<defs>
					<path id="SVGID_19_" d="M-541.8,605.2L-541.8,605.2c-19,0-34.5-15.5-34.5-34.5V517c0-19,15.5-34.5,34.5-34.5l0,0
						c19,0,34.5,15.5,34.5,34.5v53.7C-507.3,589.7-522.8,605.2-541.8,605.2z"/>
				</defs>
				<clipPath id="SVGID_20_">
					<use xlink:href="#SVGID_19_"  style="overflow:visible;"/>
				</clipPath>
				<g class="st9">
					<rect x="-576.3" y="549.5" width="69" height="11.2"/>
				</g>
			</g>
		</g>
		<g>
			<g>
				<defs>
					<path id="SVGID_21_" d="M-541.8,605.2L-541.8,605.2c-19,0-34.5-15.5-34.5-34.5V517c0-19,15.5-34.5,34.5-34.5l0,0
						c19,0,34.5,15.5,34.5,34.5v53.7C-507.3,589.7-522.8,605.2-541.8,605.2z"/>
				</defs>
				<clipPath id="SVGID_22_">
					<use xlink:href="#SVGID_21_"  style="overflow:visible;"/>
				</clipPath>
				<g class="st10">
					<rect x="-576.3" y="571.8" width="69" height="11.2"/>
				</g>
			</g>
		</g>
		<g>
			<g>
				<defs>
					<path id="SVGID_23_" d="M-541.8,605.2L-541.8,605.2c-19,0-34.5-15.5-34.5-34.5V517c0-19,15.5-34.5,34.5-34.5l0,0
						c19,0,34.5,15.5,34.5,34.5v53.7C-507.3,589.7-522.8,605.2-541.8,605.2z"/>
				</defs>
				<clipPath id="SVGID_24_">
					<use xlink:href="#SVGID_23_"  style="overflow:visible;"/>
				</clipPath>
				<g class="st11">
					<rect x="-576.3" y="594" width="69" height="11.2"/>
				</g>
			</g>
		</g>
	</g>
	<circle cx="-591" cy="445.1" r="14.8"/>
	<polygon points="-597.3,451.6 -643.7,403.9 -584.8,434.5 	"/>
</g>
</svg>
