<?xml version="1.0" encoding="utf-8"?>
<!-- Generator: Adobe Illustrator 19.0.0, SVG Export Plug-In . SVG Version: 6.00 Build 0)  -->
<svg version="1.1" id="Layer_1" xmlns="http://www.w3.org/2000/svg" xmlns:xlink="http://www.w3.org/1999/xlink" x="0px" y="0px"
	 viewBox="451 -107.7 1030 101" style="enable-background:new 451 -107.7 1030 101;" xml:space="preserve">
<style type="text/css">
	.st0{fill:#FF4C46;}
	.st1{fill:#2E9BF0;}
</style>
<g>
	<g>
		<path class="st0" d="M451.1-106h38.5c22.7,0,37.1,13,37.1,32.6v0.3c0,21.9-17.5,33.3-39.1,33.3h-19.5v31.3H451L451.1-106
			L451.1-106z M488.1-55.3c13,0,21-7.2,21-17.4V-73c0-11.4-8.2-17.5-21-17.5h-19.9v35.1H488.1z"/>
		<path class="st0" d="M536.5-106h43.4c12.3,0,21.9,3.7,28.2,9.7c5.2,5.4,8,12.6,8,21v0.3c0,16.1-9.6,25.7-23.3,29.5l26.4,37h-20.2
			l-24-34h-21.4v34h-17.2V-106z M578.7-57.6c12.3,0,20-6.3,20-16.4v-0.3c0-10.4-7.5-16.2-20.2-16.2h-25v32.7L578.7-57.6L578.7-57.6z
			"/>
		<rect x="629.6" y="-106" class="st0" width="17.2" height="97.6"/>
		<path class="st0" d="M661-56.9v-0.3c0-27.5,21.2-50.5,51.2-50.5s50.9,22.7,50.9,50.2v0.3c0,27.5-21.2,50.5-51.2,50.5
			C682.1-6.8,661-29.5,661-56.9 M745.1-56.9v-0.3c0-18.9-13.8-34.7-33.1-34.7c-19.3,0-32.9,15.5-32.9,34.4v0.3
			c0,18.9,13.8,34.7,33.1,34.7C731.6-22.5,745.1-38,745.1-56.9"/>
		<path class="st0" d="M776.6-106H820c12.3,0,21.9,3.7,28.2,9.7c5.2,5.4,8,12.6,8,21v0.3c0,16.1-9.6,25.7-23.3,29.5l26.4,37h-20.2
			l-24-34h-21.4v34h-17.2V-106z M818.9-57.6c12.3,0,20-6.3,20-16.4v-0.3c0-10.4-7.5-16.2-20.2-16.2h-25v32.7L818.9-57.6L818.9-57.6z
			"/>
		<rect x="870.8" y="-106" class="st0" width="17.2" height="97.6"/>
		<polygon class="st0" points="931.9,-90.2 900.8,-90.2 900.8,-106 980.1,-106 980.1,-90.2 949.1,-90.2 949.1,-8.5 931.9,-8.5 		"/>
		<polygon class="st0" points="1028.5,-46.9 989.7,-106 1009.9,-106 1037.2,-62.8 1064.9,-106 1084.5,-106 1045.7,-47.3 
			1045.7,-8.5 1028.5,-8.5 		"/>
	</g>
	<g>
		<path class="st1" d="M1244.7-65.6c-7.6,0-12.4,4.2-12.7,10c0-0.1,0-0.4,0-0.6v-0.1c0-6.1,4.8-10.3,12.6-10.3h13.8v-1.1h-13.8
			c-8.6,0-14.1,4.8-14.1,11.7v0.1c0,7.6,5.5,11.7,14.1,11.7h13.8v-21.4H1244.7L1244.7-65.6z"/>
		<path class="st0" d="M1273.5-65.6c7.6,0,12.4,4.2,12.7,10c0-0.1,0-0.4,0-0.6v-0.1c0-6.1-4.8-10.3-12.6-10.3h-13.8v-1.1h13.8
			c8.6,0,14.1,4.8,14.1,11.7v0.1c0,7.6-5.5,11.7-14.1,11.7h-13.8v-21.4H1273.5L1273.5-65.6z"/>
		<polygon class="st1" points="1109.7,-106 1127.9,-106 1157.7,-59.9 1187.3,-106 1205.7,-106 1205.7,-8.5 1188.4,-8.5 
			1188.4,-78.5 1157.7,-32.4 1157.1,-32.4 1126.5,-78.2 1126.5,-8.5 1109.7,-8.5 		"/>
		<path class="st1" d="M1312.3-106h36.4c30.6,0,51.9,21,51.9,48.5v0.3c0,27.5-21.2,48.8-51.9,48.8h-36.4V-106z M1348.7-24
			c20.5,0,33.9-13.8,33.9-32.9v-0.3c0-19-13.4-33.1-33.9-33.1h-19.2V-24H1348.7z"/>
		<path class="st1" d="M1405.5-22.6l10.3-12.3c9.3,8,18.6,12.7,30.8,12.7c10.6,0,17.4-4.9,17.4-12.3v-0.3c0-6.9-3.9-10.7-22-15
			c-20.7-5.1-32.4-11.1-32.4-29.1V-79c0-16.8,14-28.4,33.3-28.4c14.2,0,25.5,4.4,35.4,12.3l-9.2,13c-8.7-6.5-17.5-10-26.5-10
			c-10,0-15.9,5.2-15.9,11.6v0.3c0,7.5,4.5,10.9,23.1,15.4c20.6,5.1,31.3,12.4,31.3,28.6v0.3c0,18.2-14.4,29.2-34.8,29.2
			C1431.2-7.1,1417.1-12.2,1405.5-22.6"/>
		<polygon class="st1" points="1246.4,-80.6 1246.4,-90.2 1301.6,-90.2 1301.6,-105.6 1229.2,-105.6 1229.2,-80.6 		"/>
		<polygon class="st1" points="1246.4,-23.3 1246.4,-33.1 1229.2,-33.1 1229.2,-8 1302.3,-8 1302.3,-23.3 		"/>
	</g>
</g>
</svg>
